<?xml version="1.0" encoding="UTF-8"?>
<svg width="184px" height="232px" viewBox="0 0 184 232" version="1.1" xmlns="http://www.w3.org/2000/svg" xmlns:xlink="http://www.w3.org/1999/xlink">
    <!-- Generator: Sketch 54.1 (76490) - https://sketchapp.com -->
    <title>app-icons</title>
    <desc>Created with Sketch.</desc>
    <defs>
        <rect id="path-1" x="4" y="16" width="16" height="2" rx="1"></rect>
        <filter x="-4.7%" y="-37.5%" width="109.4%" height="175.0%" filterUnits="objectBoundingBox" id="filter-2">
            <feGaussianBlur stdDeviation="0.5" in="SourceAlpha" result="shadowBlurInner1"></feGaussianBlur>
            <feOffset dx="0" dy="0.5" in="shadowBlurInner1" result="shadowOffsetInner1"></feOffset>
            <feComposite in="shadowOffsetInner1" in2="SourceAlpha" operator="arithmetic" k2="-1" k3="1" result="shadowInnerInner1"></feComposite>
            <feColorMatrix values="0 0 0 0 0   0 0 0 0 0   0 0 0 0 0  0 0 0 0.5 0" type="matrix" in="shadowInnerInner1"></feColorMatrix>
        </filter>
        <rect id="path-3" x="4" y="11" width="16" height="2" rx="1"></rect>
        <filter x="-4.7%" y="-37.5%" width="109.4%" height="175.0%" filterUnits="objectBoundingBox" id="filter-4">
            <feGaussianBlur stdDeviation="0.5" in="SourceAlpha" result="shadowBlurInner1"></feGaussianBlur>
            <feOffset dx="0" dy="0.5" in="shadowBlurInner1" result="shadowOffsetInner1"></feOffset>
            <feComposite in="shadowOffsetInner1" in2="SourceAlpha" operator="arithmetic" k2="-1" k3="1" result="shadowInnerInner1"></feComposite>
            <feColorMatrix values="0 0 0 0 0   0 0 0 0 0   0 0 0 0 0  0 0 0 0.5 0" type="matrix" in="shadowInnerInner1"></feColorMatrix>
        </filter>
        <rect id="path-5" x="4" y="6" width="16" height="2" rx="1"></rect>
        <filter x="-4.7%" y="-37.5%" width="109.4%" height="175.0%" filterUnits="objectBoundingBox" id="filter-6">
            <feGaussianBlur stdDeviation="0.5" in="SourceAlpha" result="shadowBlurInner1"></feGaussianBlur>
            <feOffset dx="0" dy="0.5" in="shadowBlurInner1" result="shadowOffsetInner1"></feOffset>
            <feComposite in="shadowOffsetInner1" in2="SourceAlpha" operator="arithmetic" k2="-1" k3="1" result="shadowInnerInner1"></feComposite>
            <feColorMatrix values="0 0 0 0 0   0 0 0 0 0   0 0 0 0 0  0 0 0 0.5 0" type="matrix" in="shadowInnerInner1"></feColorMatrix>
        </filter>
        <rect id="path-7" x="4" y="16" width="16" height="2" rx="1"></rect>
        <filter x="-4.7%" y="-37.5%" width="109.4%" height="175.0%" filterUnits="objectBoundingBox" id="filter-8">
            <feGaussianBlur stdDeviation="0.5" in="SourceAlpha" result="shadowBlurInner1"></feGaussianBlur>
            <feOffset dx="0" dy="0.5" in="shadowBlurInner1" result="shadowOffsetInner1"></feOffset>
            <feComposite in="shadowOffsetInner1" in2="SourceAlpha" operator="arithmetic" k2="-1" k3="1" result="shadowInnerInner1"></feComposite>
            <feColorMatrix values="0 0 0 0 0   0 0 0 0 0   0 0 0 0 0  0 0 0 0.5 0" type="matrix" in="shadowInnerInner1"></feColorMatrix>
        </filter>
        <rect id="path-9" x="4" y="11" width="16" height="2" rx="1"></rect>
        <filter x="-4.7%" y="-37.5%" width="109.4%" height="175.0%" filterUnits="objectBoundingBox" id="filter-10">
            <feGaussianBlur stdDeviation="0.5" in="SourceAlpha" result="shadowBlurInner1"></feGaussianBlur>
            <feOffset dx="0" dy="0.5" in="shadowBlurInner1" result="shadowOffsetInner1"></feOffset>
            <feComposite in="shadowOffsetInner1" in2="SourceAlpha" operator="arithmetic" k2="-1" k3="1" result="shadowInnerInner1"></feComposite>
            <feColorMatrix values="0 0 0 0 0   0 0 0 0 0   0 0 0 0 0  0 0 0 0.5 0" type="matrix" in="shadowInnerInner1"></feColorMatrix>
        </filter>
        <rect id="path-11" x="4" y="6" width="16" height="2" rx="1"></rect>
        <filter x="-4.7%" y="-37.5%" width="109.4%" height="175.0%" filterUnits="objectBoundingBox" id="filter-12">
            <feGaussianBlur stdDeviation="0.5" in="SourceAlpha" result="shadowBlurInner1"></feGaussianBlur>
            <feOffset dx="0" dy="0.5" in="shadowBlurInner1" result="shadowOffsetInner1"></feOffset>
            <feComposite in="shadowOffsetInner1" in2="SourceAlpha" operator="arithmetic" k2="-1" k3="1" result="shadowInnerInner1"></feComposite>
            <feColorMatrix values="0 0 0 0 0   0 0 0 0 0   0 0 0 0 0  0 0 0 0.5 0" type="matrix" in="shadowInnerInner1"></feColorMatrix>
        </filter>
        <linearGradient x1="50%" y1="0%" x2="50%" y2="100%" id="linearGradient-13">
            <stop stop-color="#9B2463" offset="0%"></stop>
            <stop stop-color="#312461" offset="100%"></stop>
        </linearGradient>
        <linearGradient x1="50%" y1="0%" x2="50%" y2="100%" id="linearGradient-14">
            <stop stop-color="#9B2463" offset="0%"></stop>
            <stop stop-color="#312461" offset="100%"></stop>
        </linearGradient>
        <linearGradient x1="50%" y1="0%" x2="50%" y2="100%" id="linearGradient-15">
            <stop stop-color="#9B2463" offset="0%"></stop>
            <stop stop-color="#312461" offset="100%"></stop>
        </linearGradient>
        <linearGradient x1="50%" y1="0%" x2="50%" y2="100%" id="linearGradient-16">
            <stop stop-color="#9B2463" offset="0%"></stop>
            <stop stop-color="#312461" offset="100%"></stop>
        </linearGradient>
        <linearGradient x1="50%" y1="0%" x2="50%" y2="100%" id="linearGradient-17">
            <stop stop-color="#9B2463" offset="0%"></stop>
            <stop stop-color="#312461" offset="100%"></stop>
        </linearGradient>
        <linearGradient x1="50%" y1="0%" x2="50%" y2="100%" id="linearGradient-18">
            <stop stop-color="#9B2463" offset="0%"></stop>
            <stop stop-color="#312461" offset="100%"></stop>
        </linearGradient>
        <linearGradient x1="50%" y1="0%" x2="50%" y2="100%" id="linearGradient-19">
            <stop stop-color="#9B2463" offset="0%"></stop>
            <stop stop-color="#312461" offset="100%"></stop>
        </linearGradient>
    </defs>
    <g id="app-icons" stroke="none" stroke-width="1" fill="none" fill-rule="evenodd">
        <g id="Button/Menu/Normal">
            <g id="Line">
                <use fill="#7F7F7F" fill-rule="evenodd" xlink:href="#path-1"></use>
                <use fill="black" fill-opacity="1" filter="url(#filter-2)" xlink:href="#path-1"></use>
            </g>
            <g id="Line">
                <use fill="#7F7F7F" fill-rule="evenodd" xlink:href="#path-3"></use>
                <use fill="black" fill-opacity="1" filter="url(#filter-4)" xlink:href="#path-3"></use>
            </g>
            <g id="Line">
                <use fill="#7F7F7F" fill-rule="evenodd" xlink:href="#path-5"></use>
                <use fill="black" fill-opacity="1" filter="url(#filter-6)" xlink:href="#path-5"></use>
            </g>
        </g>
        <g id="Button/Menu/Active" transform="translate(32.000000, 0.000000)">
            <g id="Line">
                <use fill="#4D4D4D" fill-rule="evenodd" xlink:href="#path-7"></use>
                <use fill="black" fill-opacity="1" filter="url(#filter-8)" xlink:href="#path-7"></use>
            </g>
            <g id="Line">
                <use fill="#4D4D4D" fill-rule="evenodd" xlink:href="#path-9"></use>
                <use fill="black" fill-opacity="1" filter="url(#filter-10)" xlink:href="#path-9"></use>
            </g>
            <g id="Line">
                <use fill="#4D4D4D" fill-rule="evenodd" xlink:href="#path-11"></use>
                <use fill="black" fill-opacity="1" filter="url(#filter-12)" xlink:href="#path-11"></use>
            </g>
        </g>
        <g id="Icon/All/Normal" transform="translate(0.000000, 40.000000)" fill="url(#linearGradient-13)">
            <path d="M2,4 C0.8954305,4 0,3.1045695 0,2 C0,0.8954305 0.8954305,0 2,0 C3.1045695,0 4,0.8954305 4,2 C4,3.1045695 3.1045695,4 2,4 Z M8,4 C6.8954305,4 6,3.1045695 6,2 C6,0.8954305 6.8954305,0 8,0 C9.1045695,0 10,0.8954305 10,2 C10,3.1045695 9.1045695,4 8,4 Z M14,4 C12.8954305,4 12,3.1045695 12,2 C12,0.8954305 12.8954305,0 14,0 C15.1045695,0 16,0.8954305 16,2 C16,3.1045695 15.1045695,4 14,4 Z M2,10 C0.8954305,10 0,9.1045695 0,8 C0,6.8954305 0.8954305,6 2,6 C3.1045695,6 4,6.8954305 4,8 C4,9.1045695 3.1045695,10 2,10 Z M8,10 C6.8954305,10 6,9.1045695 6,8 C6,6.8954305 6.8954305,6 8,6 C9.1045695,6 10,6.8954305 10,8 C10,9.1045695 9.1045695,10 8,10 Z M14,10 C12.8954305,10 12,9.1045695 12,8 C12,6.8954305 12.8954305,6 14,6 C15.1045695,6 16,6.8954305 16,8 C16,9.1045695 15.1045695,10 14,10 Z M2,16 C0.8954305,16 0,15.1045695 0,14 C0,12.8954305 0.8954305,12 2,12 C3.1045695,12 4,12.8954305 4,14 C4,15.1045695 3.1045695,16 2,16 Z M8,16 C6.8954305,16 6,15.1045695 6,14 C6,12.8954305 6.8954305,12 8,12 C9.1045695,12 10,12.8954305 10,14 C10,15.1045695 9.1045695,16 8,16 Z M14,16 C12.8954305,16 12,15.1045695 12,14 C12,12.8954305 12.8954305,12 14,12 C15.1045695,12 16,12.8954305 16,14 C16,15.1045695 15.1045695,16 14,16 Z" id="Shape"></path>
        </g>
        <g id="Icon/All/Selected" transform="translate(24.000000, 40.000000)" fill="#FFFFFF">
            <path d="M2,4 C0.8954305,4 0,3.1045695 0,2 C0,0.8954305 0.8954305,0 2,0 C3.1045695,0 4,0.8954305 4,2 C4,3.1045695 3.1045695,4 2,4 Z M8,4 C6.8954305,4 6,3.1045695 6,2 C6,0.8954305 6.8954305,0 8,0 C9.1045695,0 10,0.8954305 10,2 C10,3.1045695 9.1045695,4 8,4 Z M14,4 C12.8954305,4 12,3.1045695 12,2 C12,0.8954305 12.8954305,0 14,0 C15.1045695,0 16,0.8954305 16,2 C16,3.1045695 15.1045695,4 14,4 Z M2,10 C0.8954305,10 0,9.1045695 0,8 C0,6.8954305 0.8954305,6 2,6 C3.1045695,6 4,6.8954305 4,8 C4,9.1045695 3.1045695,10 2,10 Z M8,10 C6.8954305,10 6,9.1045695 6,8 C6,6.8954305 6.8954305,6 8,6 C9.1045695,6 10,6.8954305 10,8 C10,9.1045695 9.1045695,10 8,10 Z M14,10 C12.8954305,10 12,9.1045695 12,8 C12,6.8954305 12.8954305,6 14,6 C15.1045695,6 16,6.8954305 16,8 C16,9.1045695 15.1045695,10 14,10 Z M2,16 C0.8954305,16 0,15.1045695 0,14 C0,12.8954305 0.8954305,12 2,12 C3.1045695,12 4,12.8954305 4,14 C4,15.1045695 3.1045695,16 2,16 Z M8,16 C6.8954305,16 6,15.1045695 6,14 C6,12.8954305 6.8954305,12 8,12 C9.1045695,12 10,12.8954305 10,14 C10,15.1045695 9.1045695,16 8,16 Z M14,16 C12.8954305,16 12,15.1045695 12,14 C12,12.8954305 12.8954305,12 14,12 C15.1045695,12 16,12.8954305 16,14 C16,15.1045695 15.1045695,16 14,16 Z" id="Shape"></path>
        </g>
        <g id="Icon/Chevron/Normal" transform="translate(64.000000, 0.000000)">
            <g>
                <rect id="Area" x="0" y="0" width="16" height="16"></rect>
                <polyline id="Chevron" stroke="#843A72" stroke-width="1.5" stroke-linecap="round" stroke-linejoin="round" points="3 6 8 11 13 6"></polyline>
            </g>
        </g>
        <g id="Icon/Chevron/Table" transform="translate(88.000000, 0.000000)" stroke="#666666">
            <polyline id="Chevron" points="4 6 8 10 12 6"></polyline>
        </g>
        <g id="Icon/Close" transform="translate(112.000000, 0.000000)">
            <g>
                <rect id="Rectangle" x="0" y="0" width="16" height="16"></rect>
                <path d="M2,2 L14,14" id="Path-2" stroke="#843A72" stroke-width="2" stroke-linecap="round"></path>
                <path d="M14,2 L2,14" id="Path-2" stroke="#843A72" stroke-width="2" stroke-linecap="round"></path>
            </g>
        </g>
        <g id="Icon/Favorites/Active" transform="translate(0.000000, 64.000000)" fill="url(#linearGradient-14)">
            <path d="M15.0418152,5.95666667 C14.8998721,5.57324147 14.5346693,5.31834376 14.1258152,5.31733333 L10.1644818,5.31733333 L8.74581516,1.3 C8.60228579,0.916166242 8.23440655,0.662750286 7.82462387,0.665431525 C7.41484119,0.668112764 7.05030954,0.926320939 6.91181516,1.312 L5.49781516,5.31733333 L1.53648182,5.31733333 C1.12578158,5.31771185 0.759133498,5.57481649 0.618839337,5.9608118 C0.478545175,6.34680711 0.594539473,6.77933334 0.90914849,7.04333333 L4.26314849,9.82266667 L2.85581516,14.0453333 C2.72023997,14.4488667 2.8616543,14.8937304 3.2053517,15.1449115 C3.5490491,15.3960925 4.01584837,15.3957238 4.35914849,15.144 L7.83114849,12.6 L11.3024818,15.1453333 C11.6453695,15.3965556 12.1113692,15.3971546 12.4549016,15.1468145 C12.798434,14.8964744 12.9406012,14.4526901 12.8064818,14.0493333 L11.3984818,9.824 L14.7598152,7.038 C15.0702484,6.77171452 15.1826673,6.34064249 15.0418152,5.95666667 Z" id="Path"></path>
        </g>
        <g id="Icon/Favorites/ActiveSelected" transform="translate(24.000000, 64.000000)" fill="#FFFFFF">
            <path d="M15.0418152,5.95666667 C14.8998721,5.57324147 14.5346693,5.31834376 14.1258152,5.31733333 L10.1644818,5.31733333 L8.74581516,1.3 C8.60228579,0.916166242 8.23440655,0.662750286 7.82462387,0.665431525 C7.41484119,0.668112764 7.05030954,0.926320939 6.91181516,1.312 L5.49781516,5.31733333 L1.53648182,5.31733333 C1.12578158,5.31771185 0.759133498,5.57481649 0.618839337,5.9608118 C0.478545175,6.34680711 0.594539473,6.77933334 0.90914849,7.04333333 L4.26314849,9.82266667 L2.85581516,14.0453333 C2.72023997,14.4488667 2.8616543,14.8937304 3.2053517,15.1449115 C3.5490491,15.3960925 4.01584837,15.3957238 4.35914849,15.144 L7.83114849,12.6 L11.3024818,15.1453333 C11.6453695,15.3965556 12.1113692,15.3971546 12.4549016,15.1468145 C12.798434,14.8964744 12.9406012,14.4526901 12.8064818,14.0493333 L11.3984818,9.824 L14.7598152,7.038 C15.0702484,6.77171452 15.1826673,6.34064249 15.0418152,5.95666667 Z" id="Path"></path>
        </g>
        <g id="Icon/Favorites/Normal" transform="translate(0.000000, 88.000000)" fill="#666666" fill-rule="nonzero">
            <path d="M15.0418152,5.95666667 C14.8998721,5.57324147 14.5346693,5.31834376 14.1258152,5.31733333 L10.1644818,5.31733333 L8.74581516,1.3 C8.60228579,0.916166242 8.23440655,0.662750286 7.82462387,0.665431525 C7.41484119,0.668112764 7.05030954,0.926320939 6.91181516,1.312 L5.49781516,5.31733333 L1.53648182,5.31733333 C1.12578158,5.31771185 0.759133498,5.57481649 0.618839337,5.9608118 C0.478545175,6.34680711 0.594539473,6.77933334 0.90914849,7.04333333 L4.26314849,9.82266667 L2.85581516,14.0453333 C2.72023997,14.4488667 2.8616543,14.8937304 3.2053517,15.1449115 C3.5490491,15.3960925 4.01584837,15.3957238 4.35914849,15.144 L7.83114849,12.6 L11.3024818,15.1453333 C11.6453695,15.3965556 12.1113692,15.3971546 12.4549016,15.1468145 C12.798434,14.8964744 12.9406012,14.4526901 12.8064818,14.0493333 L11.3984818,9.824 L14.7598152,7.038 C15.0702484,6.77171452 15.1826673,6.34064249 15.0418152,5.95666667 Z M10.1971485,9.09 C9.98529044,9.26544809 9.90294253,9.55300381 9.98981516,9.814 L11.0224818,12.912 C11.0455846,12.9808806 11.021407,13.0567905 10.9627235,13.0996218 C10.9040401,13.1424531 10.8243729,13.1423364 10.7658152,13.0993333 L8.22448182,11.234 C7.98978323,11.0618267 7.67051375,11.0618267 7.43581516,11.234 L4.89781516,13.096 C4.8393562,13.1387349 4.7599916,13.138832 4.70142817,13.0962404 C4.64286475,13.0536489 4.61850431,12.9781153 4.64114849,12.9093333 L5.67314849,9.81133333 C5.76017413,9.55047362 5.67809878,9.26294516 5.46648182,9.08733333 L2.88114849,6.946 C2.82682857,6.90127596 2.80644726,6.82725668 2.8302169,6.76103057 C2.85398654,6.69480447 2.91678591,6.6506401 2.98714849,6.65066667 L5.97048182,6.65066667 C6.25328141,6.65058765 6.50525903,6.47209237 6.59914849,6.20533333 L7.67381516,3.16 C7.69719187,3.09311739 7.76029827,3.04832424 7.83114849,3.04832424 C7.90199871,3.04832424 7.96510511,3.09311739 7.98848182,3.16 L9.06248182,6.20533333 C9.15637128,6.47209237 9.4083489,6.65058765 9.69114849,6.65066667 L12.6744818,6.65066667 C12.7448444,6.6506401 12.8076438,6.69480447 12.8314134,6.76103057 C12.8551831,6.82725668 12.8348017,6.90127596 12.7804818,6.946 L10.1971485,9.09 Z" id="Shape"></path>
        </g>
        <g id="Icon/Favorites/Selected" transform="translate(24.000000, 88.000000)" fill="#FFFFFF" fill-rule="nonzero">
            <path d="M15.0418152,5.95666667 C14.8998721,5.57324147 14.5346693,5.31834376 14.1258152,5.31733333 L10.1644818,5.31733333 L8.74581516,1.3 C8.60228579,0.916166242 8.23440655,0.662750286 7.82462387,0.665431525 C7.41484119,0.668112764 7.05030954,0.926320939 6.91181516,1.312 L5.49781516,5.31733333 L1.53648182,5.31733333 C1.12578158,5.31771185 0.759133498,5.57481649 0.618839337,5.9608118 C0.478545175,6.34680711 0.594539473,6.77933334 0.90914849,7.04333333 L4.26314849,9.82266667 L2.85581516,14.0453333 C2.72023997,14.4488667 2.8616543,14.8937304 3.2053517,15.1449115 C3.5490491,15.3960925 4.01584837,15.3957238 4.35914849,15.144 L7.83114849,12.6 L11.3024818,15.1453333 C11.6453695,15.3965556 12.1113692,15.3971546 12.4549016,15.1468145 C12.798434,14.8964744 12.9406012,14.4526901 12.8064818,14.0493333 L11.3984818,9.824 L14.7598152,7.038 C15.0702484,6.77171452 15.1826673,6.34064249 15.0418152,5.95666667 Z M10.1971485,9.09 C9.98529044,9.26544809 9.90294253,9.55300381 9.98981516,9.814 L11.0224818,12.912 C11.0455846,12.9808806 11.021407,13.0567905 10.9627235,13.0996218 C10.9040401,13.1424531 10.8243729,13.1423364 10.7658152,13.0993333 L8.22448182,11.234 C7.98978323,11.0618267 7.67051375,11.0618267 7.43581516,11.234 L4.89781516,13.096 C4.8393562,13.1387349 4.7599916,13.138832 4.70142817,13.0962404 C4.64286475,13.0536489 4.61850431,12.9781153 4.64114849,12.9093333 L5.67314849,9.81133333 C5.76017413,9.55047362 5.67809878,9.26294516 5.46648182,9.08733333 L2.88114849,6.946 C2.82682857,6.90127596 2.80644726,6.82725668 2.8302169,6.76103057 C2.85398654,6.69480447 2.91678591,6.6506401 2.98714849,6.65066667 L5.97048182,6.65066667 C6.25328141,6.65058765 6.50525903,6.47209237 6.59914849,6.20533333 L7.67381516,3.16 C7.69719187,3.09311739 7.76029827,3.04832424 7.83114849,3.04832424 C7.90199871,3.04832424 7.96510511,3.09311739 7.98848182,3.16 L9.06248182,6.20533333 C9.15637128,6.47209237 9.4083489,6.65058765 9.69114849,6.65066667 L12.6744818,6.65066667 C12.7448444,6.6506401 12.8076438,6.69480447 12.8314134,6.76103057 C12.8551831,6.82725668 12.8348017,6.90127596 12.7804818,6.946 L10.1971485,9.09 Z" id="Shape"></path>
        </g>
        <g id="Icon/NodeType/DataCenter" transform="translate(112.000000, 80.000000)" fill="url(#linearGradient-15)">
            <path d="M13,18 L13,21 C13,21.5522847 13.4477153,22 14,22 L18,22 C18.5522847,22 19,22.4477153 19,23 C19,23.5522847 18.5522847,24 18,24 L6,24 C5.44771525,24 5,23.5522847 5,23 C5,22.4477153 5.44771525,22 6,22 L10,22 C10.5522847,22 11,21.5522847 11,21 L11,18 L1,18 C0.44771525,18 6.76353751e-17,17.5522847 0,17 L0,14 C-6.76353751e-17,13.4477153 0.44771525,13 1,13 L23,13 C23.5522847,13 24,13.4477153 24,14 L24,17 C24,17.5522847 23.5522847,18 23,18 L13,18 Z M2.5,16.5 C3.05228475,16.5 3.5,16.0522847 3.5,15.5 C3.5,14.9477153 3.05228475,14.5 2.5,14.5 C1.94771525,14.5 1.5,14.9477153 1.5,15.5 C1.5,16.0522847 1.94771525,16.5 2.5,16.5 Z M5.5,16.5 C6.05228475,16.5 6.5,16.0522847 6.5,15.5 C6.5,14.9477153 6.05228475,14.5 5.5,14.5 C4.94771525,14.5 4.5,14.9477153 4.5,15.5 C4.5,16.0522847 4.94771525,16.5 5.5,16.5 Z M1,7 L23,7 C23.5522847,7 24,7.44771525 24,8 L24,11 C24,11.5522847 23.5522847,12 23,12 L1,12 C0.44771525,12 6.76353751e-17,11.5522847 0,11 L0,8 C-6.76353751e-17,7.44771525 0.44771525,7 1,7 Z M2.5,10.5 C3.05228475,10.5 3.5,10.0522847 3.5,9.5 C3.5,8.94771525 3.05228475,8.5 2.5,8.5 C1.94771525,8.5 1.5,8.94771525 1.5,9.5 C1.5,10.0522847 1.94771525,10.5 2.5,10.5 Z M5.5,10.5 C6.05228475,10.5 6.5,10.0522847 6.5,9.5 C6.5,8.94771525 6.05228475,8.5 5.5,8.5 C4.94771525,8.5 4.5,8.94771525 4.5,9.5 C4.5,10.0522847 4.94771525,10.5 5.5,10.5 Z M1,1 L23,1 C23.5522847,1 24,1.44771525 24,2 L24,5 C24,5.55228475 23.5522847,6 23,6 L1,6 C0.44771525,6 6.76353751e-17,5.55228475 0,5 L0,2 C-6.76353751e-17,1.44771525 0.44771525,1 1,1 Z M2.5,4.5 C3.05228475,4.5 3.5,4.05228475 3.5,3.5 C3.5,2.94771525 3.05228475,2.5 2.5,2.5 C1.94771525,2.5 1.5,2.94771525 1.5,3.5 C1.5,4.05228475 1.94771525,4.5 2.5,4.5 Z M5.5,4.5 C6.05228475,4.5 6.5,4.05228475 6.5,3.5 C6.5,2.94771525 6.05228475,2.5 5.5,2.5 C4.94771525,2.5 4.5,2.94771525 4.5,3.5 C4.5,4.05228475 4.94771525,4.5 5.5,4.5 Z M1,22 L2,22 C2.55228475,22 3,22.4477153 3,23 C3,23.5522847 2.55228475,24 2,24 L1,24 C0.44771525,24 6.76353751e-17,23.5522847 0,23 C-6.76353751e-17,22.4477153 0.44771525,22 1,22 Z M22,22 L23,22 C23.5522847,22 24,22.4477153 24,23 C24,23.5522847 23.5522847,24 23,24 L22,24 C21.4477153,24 21,23.5522847 21,23 C21,22.4477153 21.4477153,22 22,22 Z" id="Combined-Shape"></path>
        </g>
        <g id="Icon/NodeType/Residential" transform="translate(112.000000, 40.000000)" fill="url(#linearGradient-16)">
            <path d="M1,22 L2,22 C2.55228475,22 3,22.4477153 3,23 C3,23.5522847 2.55228475,24 2,24 L1,24 C0.44771525,24 6.76353751e-17,23.5522847 0,23 C-6.76353751e-17,22.4477153 0.44771525,22 1,22 Z M22,22 L23,22 C23.5522847,22 24,22.4477153 24,23 C24,23.5522847 23.5522847,24 23,24 L22,24 C21.4477153,24 21,23.5522847 21,23 C21,22.4477153 21.4477153,22 22,22 Z M6,22 L10,22 C10.5522847,22 11,21.5522847 11,21 L11,18 L5,18 C4.44771525,18 4,17.5522847 4,17 L4,10.5 L2.20710678,12.2928932 C1.81658249,12.6834175 1.18341751,12.6834175 0.792893219,12.2928932 L0.707106781,12.2071068 C0.316582489,11.8165825 0.316582489,11.1834175 0.707106781,10.7928932 L11.0807612,0.419238816 C11.5884428,-0.0884427637 12.4115572,-0.0884427637 12.9192388,0.419238816 L23.2928932,10.7928932 C23.6834175,11.1834175 23.6834175,11.8165825 23.2928932,12.2071068 L23.2071068,12.2928932 C22.8165825,12.6834175 22.1834175,12.6834175 21.7928932,12.2928932 L20,10.5 L20,17 C20,17.5522847 19.5522847,18 19,18 L13,18 L13,21 C13,21.5522847 13.4477153,22 14,22 L18,22 C18.5522847,22 19,22.4477153 19,23 C19,23.5522847 18.5522847,24 18,24 L6,24 C5.44771525,24 5,23.5522847 5,23 C5,22.4477153 5.44771525,22 6,22 Z M12,10 C10.8954305,10 10,10.8954305 10,12 L10,16 L14,16 L14,12 C14,10.8954305 13.1045695,10 12,10 Z" id="Combined-Shape"></path>
        </g>
        <g id="Icon/OpenVPN/Normal" transform="translate(56.000000, 40.000000)" fill-rule="nonzero">
            <path d="M8,0 C3.58125,0 0,3.58125 0,8 C0,10.9578124 1.6093752,13.5328124 3.9953124,14.91875 L5.7968752,11.8046876 C4.4843752,11.04375 3.6,9.6265624 3.6,8 C3.6,5.5703124 5.5703124,3.6 8,3.6 C10.4296876,3.6 12.4,5.5703124 12.4,8 C12.4,9.6265624 11.5156252,11.04375 10.2031252,11.8046876 L12.0046876,14.91875 C14.3906252,13.5328124 16,10.9578124 16,8 C16,3.58125 12.41875,0 8,0 Z" id="Path" fill="#FF9100"></path>
            <path d="M10.4,8 C10.4,6.675 9.325,5.6 8,5.6 C6.675,5.6 5.6,6.675 5.6,8 C5.6,9.0218752 6.2406252,9.89375 7.1406252,10.2390624 L6.1171876,15.7671876 C6.7218752,15.9140624 7.35,16 8,16 C8.65,16 9.2781252,15.9140624 9.8828124,15.76875 L8.8593752,10.2390624 C9.7593752,9.89375 10.4,9.0218752 10.4,8 Z" id="Path" fill="#1A237E"></path>
        </g>
        <g id="Icon/OpenVPN/Selected" transform="translate(80.000000, 40.000000)" fill="#FFFFFF" fill-rule="nonzero">
            <path d="M8,0 C3.58125,0 0,3.58125 0,8 C0,10.9578124 1.6093752,13.5328124 3.9953124,14.91875 L5.7968752,11.8046876 C4.4843752,11.04375 3.6,9.6265624 3.6,8 C3.6,5.5703124 5.5703124,3.6 8,3.6 C10.4296876,3.6 12.4,5.5703124 12.4,8 C12.4,9.6265624 11.5156252,11.04375 10.2031252,11.8046876 L12.0046876,14.91875 C14.3906252,13.5328124 16,10.9578124 16,8 C16,3.58125 12.41875,0 8,0 Z" id="Path"></path>
            <path d="M10.4,8 C10.4,6.675 9.325,5.6 8,5.6 C6.675,5.6 5.6,6.675 5.6,8 C5.6,9.0218752 6.2406252,9.89375 7.1406252,10.2390624 L6.1171876,15.7671876 C6.7218752,15.9140624 7.35,16 8,16 C8.65,16 9.2781252,15.9140624 9.8828124,15.76875 L8.8593752,10.2390624 C9.7593752,9.89375 10.4,9.0218752 10.4,8 Z" id="Path"></path>
        </g>
        <g id="Icon/WireGuard/Normal" transform="translate(56.000000, 64.000000)" fill="#AD1313" fill-rule="nonzero">
            <path d="M8,16 C3.581722,16 0,12.418278 0,8 C0,3.581722 3.581722,0 8,0 C12.418278,0 16,3.581722 16,8 C16,12.418278 12.418278,16 8,16 Z M11.848,2.4 L10.52,2.4 L9.8,6.512 L9.712,6.512 L8.872,2.776 C8.808,2.464 8.688,2.384 8.376,2.384 L7.712,2.384 C7.408,2.384 7.28,2.472 7.216,2.776 L6.376,6.512 L6.28,6.512 L5.568,2.4 L4.152,2.4 L5.328,7.664 C5.384,7.944 5.504,8.024 5.816,8.024 L6.72,8.024 C7.024,8.024 7.144,7.944 7.208,7.656 L7.96,4.288 L8.048,4.288 L8.808,7.656 C8.872,7.944 8.984,8.024 9.296,8.024 L10.192,8.024 C10.504,8.024 10.624,7.944 10.68,7.664 L11.848,2.4 Z M7.164,8.4 C6.612,8.4 6.356,8.48 6.156,8.672 C5.836,8.968 5.604,9.48 5.604,11.2 C5.604,12.912 5.836,13.424 6.156,13.728 C6.356,13.92 6.612,14 7.164,14 L8.884,14 C9.404,14 9.692,13.92 9.9,13.72 C10.212,13.424 10.42,12.944 10.42,11.656 L10.42,10.96 L7.892,10.96 L7.892,11.92 L9.148,11.92 L9.148,12.08 C9.148,12.616 9.036,12.832 8.964,12.904 C8.908,12.952 8.836,12.984 8.588,12.976 L7.516,12.976 C7.252,12.976 7.188,12.952 7.132,12.904 C7.052,12.824 6.94,12.568 6.94,11.2 C6.94,9.824 7.052,9.576 7.132,9.504 C7.188,9.448 7.252,9.424 7.516,9.424 L8.564,9.424 C8.82,9.424 8.892,9.456 8.94,9.504 C9.012,9.568 9.1,9.68 9.116,10.24 L10.372,10.24 C10.356,9.264 10.212,8.928 9.916,8.656 C9.716,8.464 9.452,8.4 8.884,8.4 L7.164,8.4 Z" id="Logo"></path>
        </g>
        <g id="Icon/WireGuard/Selected" transform="translate(80.000000, 64.000000)" fill="#FFFFFF" fill-rule="nonzero">
            <path d="M8,16 C3.581722,16 0,12.418278 0,8 C0,3.581722 3.581722,0 8,0 C12.418278,0 16,3.581722 16,8 C16,12.418278 12.418278,16 8,16 Z M11.848,2.4 L10.52,2.4 L9.8,6.512 L9.712,6.512 L8.872,2.776 C8.808,2.464 8.688,2.384 8.376,2.384 L7.712,2.384 C7.408,2.384 7.28,2.472 7.216,2.776 L6.376,6.512 L6.28,6.512 L5.568,2.4 L4.152,2.4 L5.328,7.664 C5.384,7.944 5.504,8.024 5.816,8.024 L6.72,8.024 C7.024,8.024 7.144,7.944 7.208,7.656 L7.96,4.288 L8.048,4.288 L8.808,7.656 C8.872,7.944 8.984,8.024 9.296,8.024 L10.192,8.024 C10.504,8.024 10.624,7.944 10.68,7.664 L11.848,2.4 Z M7.164,8.4 C6.612,8.4 6.356,8.48 6.156,8.672 C5.836,8.968 5.604,9.48 5.604,11.2 C5.604,12.912 5.836,13.424 6.156,13.728 C6.356,13.92 6.612,14 7.164,14 L8.884,14 C9.404,14 9.692,13.92 9.9,13.72 C10.212,13.424 10.42,12.944 10.42,11.656 L10.42,10.96 L7.892,10.96 L7.892,11.92 L9.148,11.92 L9.148,12.08 C9.148,12.616 9.036,12.832 8.964,12.904 C8.908,12.952 8.836,12.984 8.588,12.976 L7.516,12.976 C7.252,12.976 7.188,12.952 7.132,12.904 C7.052,12.824 6.94,12.568 6.94,11.2 C6.94,9.824 7.052,9.576 7.132,9.504 C7.188,9.448 7.252,9.424 7.516,9.424 L8.564,9.424 C8.82,9.424 8.892,9.456 8.94,9.504 C9.012,9.568 9.1,9.68 9.116,10.24 L10.372,10.24 C10.356,9.264 10.212,8.928 9.916,8.656 C9.716,8.464 9.452,8.4 8.884,8.4 L7.164,8.4 Z" id="Combined-Shape"></path>
        </g>
        <g id="Icon/Quality/1/Normal" transform="translate(0.000000, 120.000000)">
            <rect id="Rectangle" fill="#D8D8D8" x="16" y="0" width="4" height="16" rx="1"></rect>
            <rect id="Rectangle" fill="#D8D8D8" x="11" y="4" width="4" height="12" rx="1"></rect>
            <rect id="Rectangle" fill="#D8D8D8" x="6" y="8" width="4" height="8" rx="1"></rect>
            <rect id="Rectangle" fill="#D93C3C" x="1" y="10" width="4" height="6" rx="1"></rect>
        </g>
        <g id="Icon/Quality/2/Normal" transform="translate(28.000000, 120.000000)">
            <rect id="Bar" fill="#D8D8D8" x="16" y="0" width="4" height="16" rx="1"></rect>
            <rect id="Bar" fill="#D8D8D8" x="11" y="4" width="4" height="12" rx="1"></rect>
            <rect id="Bar" fill="#D48C26" x="6" y="8" width="4" height="8" rx="1"></rect>
            <rect id="Bar" fill="#D48C26" x="1" y="10" width="4" height="6" rx="1"></rect>
        </g>
        <g id="Icon/Quality/3/Normal" transform="translate(56.000000, 120.000000)">
            <rect id="Bar" fill="#D8D8D8" x="16" y="0" width="4" height="16" rx="1"></rect>
            <rect id="Bar" fill="#DFCC00" x="11" y="4" width="4" height="12" rx="1"></rect>
            <rect id="Bar" fill="#DFCC00" x="6" y="8" width="4" height="8" rx="1"></rect>
            <rect id="Bar" fill="#DFCC00" x="1" y="10" width="4" height="6" rx="1"></rect>
        </g>
        <g id="Icon/Quality/4/Normal" transform="translate(84.000000, 120.000000)" fill="#76C25A">
            <rect id="Bar" x="16" y="0" width="4" height="16" rx="1"></rect>
            <rect id="Bar" x="11" y="4" width="4" height="12" rx="1"></rect>
            <rect id="Bar" x="6" y="8" width="4" height="8" rx="1"></rect>
            <rect id="Bar" x="1" y="10" width="4" height="6" rx="1"></rect>
        </g>
        <g id="Icon/Quality/4/Selected" transform="translate(84.000000, 144.000000)" fill="#FFFFFF">
            <rect id="Bar" x="16" y="0" width="4" height="16" rx="1"></rect>
            <rect id="Bar" x="11" y="4" width="4" height="12" rx="1"></rect>
            <rect id="Bar" x="6" y="8" width="4" height="8" rx="1"></rect>
            <rect id="Bar" x="1" y="10" width="4" height="6" rx="1"></rect>
        </g>
        <g id="Icon/Quality/3/Selected" transform="translate(56.000000, 144.000000)" fill="#FFFFFF">
            <rect id="Bar" opacity="0.400000006" x="16" y="0" width="4" height="16" rx="1"></rect>
            <rect id="Bar" x="11" y="4" width="4" height="12" rx="1"></rect>
            <rect id="Bar" x="6" y="8" width="4" height="8" rx="1"></rect>
            <rect id="Bar" x="1" y="10" width="4" height="6" rx="1"></rect>
        </g>
        <g id="Icon/Quality/1/Selected" transform="translate(0.000000, 144.000000)" fill="#FFFFFF">
            <rect id="Rectangle" opacity="0.400000006" x="16" y="0" width="4" height="16" rx="1"></rect>
            <rect id="Rectangle" opacity="0.400000006" x="11" y="4" width="4" height="12" rx="1"></rect>
            <rect id="Rectangle" opacity="0.400000006" x="6" y="8" width="4" height="8" rx="1"></rect>
            <rect id="Rectangle" x="1" y="10" width="4" height="6" rx="1"></rect>
        </g>
        <g id="Icon/Quality/2/Selected" transform="translate(28.000000, 144.000000)" fill="#FFFFFF">
            <rect id="Bar" opacity="0.400000006" x="16" y="0" width="4" height="16" rx="1"></rect>
            <rect id="Bar" opacity="0.400000006" x="11" y="4" width="4" height="12" rx="1"></rect>
            <rect id="Bar" x="6" y="8" width="4" height="8" rx="1"></rect>
            <rect id="Bar" x="1" y="10" width="4" height="6" rx="1"></rect>
        </g>
        <g id="Icon/Social/Telegram/Normal" transform="translate(0.000000, 176.000000)" fill="#404040">
            <path d="M12,23 C5.92486775,23 1,18.0751322 1,12 C1,5.92486775 5.92486775,1 12,1 C18.0751322,1 23,5.92486775 23,12 C23,18.0751322 18.0751322,23 12,23 Z M10.1705894,14.2373522 L10.1705167,14.2373083 L9.98333333,17.0416667 C10.2583333,17.0416667 10.3798375,16.9159 10.5333333,16.7666667 L11.8545757,15.4819236 L14.6033333,17.5127417 C15.1091958,17.7918575 15.474295,17.647345 15.6003,17.0430875 L17.4047583,8.5398125 C17.5895033,7.7991275 17.1224158,7.4631875 16.63848,7.68289417 L6.04273,11.7685692 C5.31947083,12.0586667 5.3236875,12.4621742 5.910895,12.6419692 L8.63000333,13.4906467 L14.9250283,9.51918833 C15.2222025,9.33898083 15.4949475,9.43586425 15.2710883,9.63454167 L10.1705894,14.2373522 Z" id="Logo"></path>
        </g>
        <g id="Icon/Social/Medium/Normal" transform="translate(32.000000, 176.000000)" fill="#404040">
            <path d="M2,2 L22,2 L22,22 L2,22 L2,2 Z M6.77272618,8.68879543 L6.77272618,14.627263 C6.80927013,14.8414856 6.7417397,15.0603155 6.59082094,15.2167202 L5.17948718,16.9286544 L5.17948718,17.1544039 L9.18140247,17.1544039 L9.18140247,16.9286544 L7.77006871,15.2167202 C7.61804307,15.0605744 7.54633106,14.8431866 7.57561828,14.627263 L7.57561828,9.49146053 L11.0882712,17.1544039 L11.4959898,17.1544039 L14.5131078,9.49146053 L14.5131078,15.5992403 C14.5131078,15.7622816 14.5131078,15.7936357 14.4064737,15.9002397 L13.3213149,16.9537376 L13.3213149,17.1794872 L18.5902943,17.1794872 L18.5902943,16.9537376 L17.542771,15.925323 C17.4502999,15.8548361 17.4044295,15.7389861 17.4235917,15.6243236 L17.4235917,8.06798414 C17.4044295,7.95332166 17.4502999,7.83747156 17.542771,7.76698473 L18.6153846,6.73857007 L18.6153846,6.51282051 L14.9020087,6.51282051 L12.2549738,13.1159951 L9.24412842,6.51282051 L5.34884723,6.51282051 L5.34884723,6.73857007 L6.60336613,8.24983795 C6.72652308,8.36084421 6.78941926,8.52386228 6.77272618,8.68879543 Z" id="Logo"></path>
        </g>
        <g id="Icon/Social/Twitter/Normal" transform="translate(64.000000, 176.000000)" fill="#404040">
            <path d="M23,5.11647098 C22.190541,5.47545265 21.3207286,5.71815355 20.4076228,5.82719192 C21.3395589,5.26864187 22.055269,4.38402282 22.3922016,3.33009254 C21.5201361,3.84736091 20.5542412,4.22291964 19.5260617,4.42538498 C18.7027616,3.54816928 17.5297341,3 16.2315739,3 C13.7387395,3 11.7178682,5.02095175 11.7178682,7.51346428 C11.7178682,7.8672958 11.7577819,8.21171221 11.8347123,8.54204616 C8.08355097,8.35382421 4.75775998,6.55690406 2.53160686,3.82619701 C2.14309229,4.49281978 1.92050916,5.26815904 1.92050916,6.0953217 C1.92050916,7.66120926 2.71733421,9.04273748 3.92842459,9.8521965 C3.1885731,9.8287794 2.49257837,9.62567029 1.88405574,9.28761111 C1.88373386,9.30644135 1.88365339,9.32535206 1.88365339,9.34434325 C1.88365339,11.5312265 3.43948206,13.3555068 5.50429057,13.7701745 C5.125513,13.873258 4.72677859,13.9283807 4.31516881,13.9283807 C4.0242657,13.9283807 3.74157065,13.9001353 3.46595706,13.8474268 C4.04035993,15.6406452 5.70723874,16.9455649 7.68232196,16.9820988 C6.13751783,18.1926259 4.19140422,18.91413 2.07670361,18.91413 C1.71241084,18.91413 1.35310728,18.8928052 1,18.8511211 C2.99753466,20.1317385 5.36998427,20.8789129 7.91890706,20.8789129 C16.2210322,20.8789129 20.760891,14.001368 20.760891,8.03684846 C20.760891,7.84114269 20.7564651,7.64648305 20.7478547,7.45295 C21.6296573,6.81658437 22.3948572,6.02161015 23,5.11647098" id="Logo"></path>
        </g>
        <g id="Icon/Social/Twitter/Hover" transform="translate(64.000000, 208.000000)" fill="url(#linearGradient-17)">
            <path d="M23,5.11647098 C22.190541,5.47545265 21.3207286,5.71815355 20.4076228,5.82719192 C21.3395589,5.26864187 22.055269,4.38402282 22.3922016,3.33009254 C21.5201361,3.84736091 20.5542412,4.22291964 19.5260617,4.42538498 C18.7027616,3.54816928 17.5297341,3 16.2315739,3 C13.7387395,3 11.7178682,5.02095175 11.7178682,7.51346428 C11.7178682,7.8672958 11.7577819,8.21171221 11.8347123,8.54204616 C8.08355097,8.35382421 4.75775998,6.55690406 2.53160686,3.82619701 C2.14309229,4.49281978 1.92050916,5.26815904 1.92050916,6.0953217 C1.92050916,7.66120926 2.71733421,9.04273748 3.92842459,9.8521965 C3.1885731,9.8287794 2.49257837,9.62567029 1.88405574,9.28761111 C1.88373386,9.30644135 1.88365339,9.32535206 1.88365339,9.34434325 C1.88365339,11.5312265 3.43948206,13.3555068 5.50429057,13.7701745 C5.125513,13.873258 4.72677859,13.9283807 4.31516881,13.9283807 C4.0242657,13.9283807 3.74157065,13.9001353 3.46595706,13.8474268 C4.04035993,15.6406452 5.70723874,16.9455649 7.68232196,16.9820988 C6.13751783,18.1926259 4.19140422,18.91413 2.07670361,18.91413 C1.71241084,18.91413 1.35310728,18.8928052 1,18.8511211 C2.99753466,20.1317385 5.36998427,20.8789129 7.91890706,20.8789129 C16.2210322,20.8789129 20.760891,14.001368 20.760891,8.03684846 C20.760891,7.84114269 20.7564651,7.64648305 20.7478547,7.45295 C21.6296573,6.81658437 22.3948572,6.02161015 23,5.11647098" id="Logo"></path>
        </g>
        <g id="Icon/Social/Reddit/Normal" transform="translate(96.000000, 176.000000)" fill="#404040">
            <path d="M12,23 C5.9258,23 1,18.0742 1,12 C1,5.9258 5.9258,1 12,1 C18.0742,1 23,5.9258 23,12 C23,18.0742 18.0742,23 12,23 Z M14.5212,14.2924 C13.8898,14.2924 13.375,13.7776 13.375,13.1462 C13.375,12.5148 13.8898,12 14.5212,12 C15.1526,12 15.6674,12.5148 15.6674,13.1462 C15.6674,13.7776 15.1526,14.2924 14.5212,14.2924 Z M14.7236,16.1734 C13.9404,16.9544 12.4422,17.016 12.0022,17.016 C11.5622,17.016 10.0618,16.9544 9.2808,16.1734 C9.1642,16.0568 9.1642,15.8698 9.2808,15.7532 C9.3974,15.6366 9.5844,15.6366 9.701,15.7532 C10.1938,16.246 11.2476,16.422 12.0022,16.422 C12.7546,16.422 13.8106,16.246 14.3034,15.7532 C14.42,15.6366 14.607,15.6366 14.7236,15.7532 C14.838,15.8698 14.838,16.0568 14.7236,16.1734 Z M8.3326,13.1462 C8.3326,12.5148 8.8474,12 9.4788,12 C10.1102,12 10.625,12.5148 10.625,13.1462 C10.625,13.7776 10.1102,14.2924 9.4788,14.2924 C8.8474,14.2924 8.3326,13.7776 8.3326,13.1462 Z M19.3326,12 C19.3326,11.1134 18.6154,10.3962 17.7288,10.3962 C17.2954,10.3962 16.9038,10.5678 16.6156,10.8472 C15.52,10.0552 14.0086,9.5448 12.3256,9.4854 L13.056,6.0468 L15.443,6.555 C15.4716,7.1622 15.9688,7.6462 16.5826,7.6462 C17.2162,7.6462 17.7288,7.1336 17.7288,6.5 C17.7288,5.8664 17.2162,5.3538 16.5826,5.3538 C16.1316,5.3538 15.7466,5.6156 15.5596,5.994 L12.8932,5.4264 C12.8184,5.411 12.7414,5.4242 12.6776,5.466 C12.6138,5.5078 12.5698,5.5716 12.5544,5.6464 L11.7536,9.4194 C11.7492,9.4414 11.7536,9.4612 11.7536,9.4832 C10.0398,9.5272 8.4998,10.0398 7.3866,10.8428 C7.0984,10.5656 6.709,10.3962 6.2778,10.3962 C5.3912,10.3962 4.674,11.1156 4.674,12 C4.674,12.6512 5.0634,13.2122 5.6222,13.463 C5.598,13.6214 5.5848,13.7842 5.5848,13.9492 C5.5848,16.4176 8.458,18.4174 12.0022,18.4174 C15.5464,18.4174 18.4196,16.4176 18.4196,13.9492 C18.4196,13.7864 18.4064,13.6258 18.3822,13.4674 C18.9388,13.2166 19.3326,12.6556 19.3326,12 Z" id="Logo"></path>
        </g>
        <g id="Icon/Social/Facebook/Normal" transform="translate(128.000000, 176.000000)" fill="#404040">
            <path d="M20.8961131,2 L3.10380445,2 C2.49412672,2 2,2.49412672 2,3.10380445 L2,20.8961131 C2,21.5057159 2.49412672,21.9999925 3.10380445,21.9999925 L12.682624,21.9999925 L12.682624,14.2549271 L10.0762067,14.2549271 L10.0762067,11.2365128 L12.682624,11.2365128 L12.682624,9.01054459 C12.682624,6.42735741 14.2603225,5.02073736 16.5647485,5.02073736 C17.6686279,5.02073736 18.6173152,5.10286701 18.8937534,5.13958555 L18.8937534,7.83922298 L17.2955225,7.83997233 C16.042296,7.83997233 15.7995789,8.4354872 15.7995789,9.30938859 L15.7995789,11.2365128 L18.7885435,11.2365128 L18.3994019,14.2549271 L15.7995789,14.2549271 L15.7995789,21.9999925 L20.8961131,21.9999925 C21.5057159,21.9999925 21.9999176,21.5057159 21.9999176,20.8961131 L21.9999176,3.10380445 C21.9999176,2.49412672 21.5057159,2 20.8961131,2" id="Logo"></path>
        </g>
        <g id="Icon/Social/Github/Normal" transform="translate(160.000000, 176.000000)" fill="#404040">
            <path d="M12,1 C5.92529297,1 1,5.92529297 1,12 C1,16.8608398 4.1515,20.9831543 8.52288281,22.4373672 C9.07275391,22.5380859 9.27350391,22.1983535 9.27350391,21.9083145 C9.27350391,21.6464629 9.26342773,20.7790527 9.25805664,19.8605957 C6.19921875,20.5252578 5.55266797,18.5634766 5.55266797,18.5634766 C5.05182422,17.2932129 4.33141016,16.954834 4.33141016,16.954834 C3.3317207,16.2727051 4.40725,16.2861328 4.40725,16.2861328 C5.51167578,16.3626602 6.09312891,17.4194336 6.09312891,17.4194336 C7.07470703,19.1005859 8.66856836,18.614502 9.29430078,18.3325195 C9.39428906,17.6235352 9.67895703,17.1374512 9.99254297,16.8635254 C7.55071484,16.585582 4.982,15.6416016 4.982,11.426625 C4.982,10.224832 5.41102148,9.24462891 6.11328125,8.47454297 C6.0011543,8.19524609 5.62249219,7.07603906 6.22203516,5.56207812 C6.22203516,5.56207812 7.14453125,5.26666797 9.24729297,6.69000781 C10.1241133,6.44495703 11.0647422,6.32410742 11.9999785,6.32006836 C12.9345488,6.32410742 13.8758223,6.44628906 14.7540176,6.69133984 C16.8527832,5.26666797 17.7766113,5.56341016 17.7766113,5.56341016 C18.3781738,7.07872461 17.9995117,8.19657812 17.8867188,8.47454297 C18.5916641,9.24462891 19.017334,10.2248535 19.017334,11.426625 C19.017334,15.6523437 16.4445801,16.582875 13.9940293,16.8554687 C14.3901582,17.1965332 14.7406113,17.8652344 14.7406113,18.8911133 C14.7406113,20.3614609 14.7258301,21.5471191 14.7258301,21.909668 C14.7258301,22.2023926 14.9258926,22.5447891 15.4831543,22.4373672 C19.851207,20.9804687 23,16.8581543 23,12 C23,5.92529297 18.074707,1 12,1 Z" id="Logo"></path>
        </g>
        <g id="Icon/Social/Github/Normal" transform="translate(160.000000, 208.000000)" fill="url(#linearGradient-18)">
            <path d="M12,1 C5.92529297,1 1,5.92529297 1,12 C1,16.8608398 4.1515,20.9831543 8.52288281,22.4373672 C9.07275391,22.5380859 9.27350391,22.1983535 9.27350391,21.9083145 C9.27350391,21.6464629 9.26342773,20.7790527 9.25805664,19.8605957 C6.19921875,20.5252578 5.55266797,18.5634766 5.55266797,18.5634766 C5.05182422,17.2932129 4.33141016,16.954834 4.33141016,16.954834 C3.3317207,16.2727051 4.40725,16.2861328 4.40725,16.2861328 C5.51167578,16.3626602 6.09312891,17.4194336 6.09312891,17.4194336 C7.07470703,19.1005859 8.66856836,18.614502 9.29430078,18.3325195 C9.39428906,17.6235352 9.67895703,17.1374512 9.99254297,16.8635254 C7.55071484,16.585582 4.982,15.6416016 4.982,11.426625 C4.982,10.224832 5.41102148,9.24462891 6.11328125,8.47454297 C6.0011543,8.19524609 5.62249219,7.07603906 6.22203516,5.56207812 C6.22203516,5.56207812 7.14453125,5.26666797 9.24729297,6.69000781 C10.1241133,6.44495703 11.0647422,6.32410742 11.9999785,6.32006836 C12.9345488,6.32410742 13.8758223,6.44628906 14.7540176,6.69133984 C16.8527832,5.26666797 17.7766113,5.56341016 17.7766113,5.56341016 C18.3781738,7.07872461 17.9995117,8.19657812 17.8867188,8.47454297 C18.5916641,9.24462891 19.017334,10.2248535 19.017334,11.426625 C19.017334,15.6523437 16.4445801,16.582875 13.9940293,16.8554687 C14.3901582,17.1965332 14.7406113,17.8652344 14.7406113,18.8911133 C14.7406113,20.3614609 14.7258301,21.5471191 14.7258301,21.909668 C14.7258301,22.2023926 14.9258926,22.5447891 15.4831543,22.4373672 C19.851207,20.9804687 23,16.8581543 23,12 C23,5.92529297 18.074707,1 12,1 Z" id="Logo"></path>
        </g>
        <g id="Icon/Social/Facebook/Normal" transform="translate(128.000000, 208.000000)" fill="url(#linearGradient-19)">
            <path d="M20.8961131,2 L3.10380445,2 C2.49412672,2 2,2.49412672 2,3.10380445 L2,20.8961131 C2,21.5057159 2.49412672,21.9999925 3.10380445,21.9999925 L12.682624,21.9999925 L12.682624,14.2549271 L10.0762067,14.2549271 L10.0762067,11.2365128 L12.682624,11.2365128 L12.682624,9.01054459 C12.682624,6.42735741 14.2603225,5.02073736 16.5647485,5.02073736 C17.6686279,5.02073736 18.6173152,5.10286701 18.8937534,5.13958555 L18.8937534,7.83922298 L17.2955225,7.83997233 C16.042296,7.83997233 15.7995789,8.4354872 15.7995789,9.30938859 L15.7995789,11.2365128 L18.7885435,11.2365128 L18.3994019,14.2549271 L15.7995789,14.2549271 L15.7995789,21.9999925 L20.8961131,21.9999925 C21.5057159,21.9999925 21.9999176,21.5057159 21.9999176,20.8961131 L21.9999176,3.10380445 C21.9999176,2.49412672 21.5057159,2 20.8961131,2" id="Logo"></path>
        </g>
        <g id="Icon/Social/Reddit/Hover" transform="translate(96.000000, 208.000000)" fill="url(#linearGradient-13)">
            <path d="M12,23 C5.9258,23 1,18.0742 1,12 C1,5.9258 5.9258,1 12,1 C18.0742,1 23,5.9258 23,12 C23,18.0742 18.0742,23 12,23 Z M14.5212,14.2924 C13.8898,14.2924 13.375,13.7776 13.375,13.1462 C13.375,12.5148 13.8898,12 14.5212,12 C15.1526,12 15.6674,12.5148 15.6674,13.1462 C15.6674,13.7776 15.1526,14.2924 14.5212,14.2924 Z M14.7236,16.1734 C13.9404,16.9544 12.4422,17.016 12.0022,17.016 C11.5622,17.016 10.0618,16.9544 9.2808,16.1734 C9.1642,16.0568 9.1642,15.8698 9.2808,15.7532 C9.3974,15.6366 9.5844,15.6366 9.701,15.7532 C10.1938,16.246 11.2476,16.422 12.0022,16.422 C12.7546,16.422 13.8106,16.246 14.3034,15.7532 C14.42,15.6366 14.607,15.6366 14.7236,15.7532 C14.838,15.8698 14.838,16.0568 14.7236,16.1734 Z M8.3326,13.1462 C8.3326,12.5148 8.8474,12 9.4788,12 C10.1102,12 10.625,12.5148 10.625,13.1462 C10.625,13.7776 10.1102,14.2924 9.4788,14.2924 C8.8474,14.2924 8.3326,13.7776 8.3326,13.1462 Z M19.3326,12 C19.3326,11.1134 18.6154,10.3962 17.7288,10.3962 C17.2954,10.3962 16.9038,10.5678 16.6156,10.8472 C15.52,10.0552 14.0086,9.5448 12.3256,9.4854 L13.056,6.0468 L15.443,6.555 C15.4716,7.1622 15.9688,7.6462 16.5826,7.6462 C17.2162,7.6462 17.7288,7.1336 17.7288,6.5 C17.7288,5.8664 17.2162,5.3538 16.5826,5.3538 C16.1316,5.3538 15.7466,5.6156 15.5596,5.994 L12.8932,5.4264 C12.8184,5.411 12.7414,5.4242 12.6776,5.466 C12.6138,5.5078 12.5698,5.5716 12.5544,5.6464 L11.7536,9.4194 C11.7492,9.4414 11.7536,9.4612 11.7536,9.4832 C10.0398,9.5272 8.4998,10.0398 7.3866,10.8428 C7.0984,10.5656 6.709,10.3962 6.2778,10.3962 C5.3912,10.3962 4.674,11.1156 4.674,12 C4.674,12.6512 5.0634,13.2122 5.6222,13.463 C5.598,13.6214 5.5848,13.7842 5.5848,13.9492 C5.5848,16.4176 8.458,18.4174 12.0022,18.4174 C15.5464,18.4174 18.4196,16.4176 18.4196,13.9492 C18.4196,13.7864 18.4064,13.6258 18.3822,13.4674 C18.9388,13.2166 19.3326,12.6556 19.3326,12 Z" id="Logo"></path>
        </g>
        <g id="Icon/Social/Medium/Hover" transform="translate(32.000000, 208.000000)" fill="url(#linearGradient-13)">
            <path d="M2,2 L22,2 L22,22 L2,22 L2,2 Z M6.77272618,8.68879543 L6.77272618,14.627263 C6.80927013,14.8414856 6.7417397,15.0603155 6.59082094,15.2167202 L5.17948718,16.9286544 L5.17948718,17.1544039 L9.18140247,17.1544039 L9.18140247,16.9286544 L7.77006871,15.2167202 C7.61804307,15.0605744 7.54633106,14.8431866 7.57561828,14.627263 L7.57561828,9.49146053 L11.0882712,17.1544039 L11.4959898,17.1544039 L14.5131078,9.49146053 L14.5131078,15.5992403 C14.5131078,15.7622816 14.5131078,15.7936357 14.4064737,15.9002397 L13.3213149,16.9537376 L13.3213149,17.1794872 L18.5902943,17.1794872 L18.5902943,16.9537376 L17.542771,15.925323 C17.4502999,15.8548361 17.4044295,15.7389861 17.4235917,15.6243236 L17.4235917,8.06798414 C17.4044295,7.95332166 17.4502999,7.83747156 17.542771,7.76698473 L18.6153846,6.73857007 L18.6153846,6.51282051 L14.9020087,6.51282051 L12.2549738,13.1159951 L9.24412842,6.51282051 L5.34884723,6.51282051 L5.34884723,6.73857007 L6.60336613,8.24983795 C6.72652308,8.36084421 6.78941926,8.52386228 6.77272618,8.68879543 Z" id="Logo"></path>
        </g>
        <g id="Icon/Social/Telegram/Hover" transform="translate(0.000000, 208.000000)" fill="url(#linearGradient-13)">
            <path d="M12,23 C5.92486775,23 1,18.0751322 1,12 C1,5.92486775 5.92486775,1 12,1 C18.0751322,1 23,5.92486775 23,12 C23,18.0751322 18.0751322,23 12,23 Z M10.1705894,14.2373522 L10.1705167,14.2373083 L9.98333333,17.0416667 C10.2583333,17.0416667 10.3798375,16.9159 10.5333333,16.7666667 L11.8545757,15.4819236 L14.6033333,17.5127417 C15.1091958,17.7918575 15.474295,17.647345 15.6003,17.0430875 L17.4047583,8.5398125 C17.5895033,7.7991275 17.1224158,7.4631875 16.63848,7.68289417 L6.04273,11.7685692 C5.31947083,12.0586667 5.3236875,12.4621742 5.910895,12.6419692 L8.63000333,13.4906467 L14.9250283,9.51918833 C15.2222025,9.33898083 15.4949475,9.43586425 15.2710883,9.63454167 L10.1705894,14.2373522 Z" id="Logo"></path>
        </g>
    </g>
</svg>