<svg xmlns="http://www.w3.org/2000/svg" xmlns:xlink="http://www.w3.org/1999/xlink" width="256" height="144" viewBox="0 0 256 144">
    <defs>
        <path id="b" d="M226.09 101.33l-17.431-33.113c-.867-1.646.295-3.629 2.154-3.678l2.793-.074c1-.027 1.968.361 2.672 1.072l23.428 23.648a3.626 3.626 0 0 1 0 5.104l-7.833 7.904c-1.724 1.74-4.643 1.305-5.784-.863m-21.693 23.393l-7.536-7.606a3.626 3.626 0 0 1-.307-4.75l13.444-17.627c1.607-2.107 4.857-1.836 6.091.509l6.625 12.585c.737 1.401.48 3.117-.633 4.242l-12.532 12.647a3.626 3.626 0 0 1-5.152 0m-78.974-.014l-19.371-19.542a3.625 3.625 0 0 1-.667-4.177l1.286-2.565a3.626 3.626 0 0 1 4.672-1.707l24.344 10.457a3.625 3.625 0 0 1 2.13 2.642l.864 4.468a3.626 3.626 0 0 1-.985 3.242l-7.124 7.183a3.625 3.625 0 0 1-5.15 0m-78.117.862l-15.726-15.87a3.626 3.626 0 0 1 .753-5.687l13.091-7.608c2.384-1.386 5.38.291 5.447 3.048l.585 24.35a2.427 2.427 0 0 1-4.15 1.767M33.12 72.782l12.369-3.94c2.304-.735 4.667.95 4.725 3.367l.291 12.108a3.626 3.626 0 0 1-1.803 3.222l-22.378 13.007a3.626 3.626 0 0 1-4.398-.583l-5.631-5.683a3.626 3.626 0 0 1 0-5.105l15.35-15.491a3.623 3.623 0 0 1 1.475-.903M91.09 18.89l2.911 2.936c.464.467.791 1.052.947 1.692l8.514 34.853c.706 2.889-2.174 5.352-4.918 4.207l-17.35-7.238a3.625 3.625 0 0 1-2.2-3.81l3.642-28.248c.102-.79.46-1.523 1.021-2.088l2.283-2.304a3.625 3.625 0 0 1 5.15 0m78.968-.006l1.183 1.193c.446.452.767 1.012.93 1.626l2.512 9.505a3.626 3.626 0 0 1-.98 3.528L160.16 47.881c-1.94 1.883-5.183 1.057-5.987-1.525l-3.294-10.58a3.626 3.626 0 0 1 .887-3.63l13.142-13.262a3.626 3.626 0 0 1 5.151 0m17.495 37.458l-4.543-17.182c-.71-2.688 2.598-4.58 4.554-2.605l15.899 16.047c2.235 2.257.695 6.093-2.48 6.177l-9.828.261a3.625 3.625 0 0 1-3.602-2.698m4.053 8.706l6.21-.165a3.626 3.626 0 0 1 3.305 1.936l8.151 15.485a3.625 3.625 0 0 1-.325 3.887l-16.059 21.057a3.626 3.626 0 0 1-5.458.353l-3.365-3.396a3.626 3.626 0 0 1-1.009-3.102l5.063-32.98a3.626 3.626 0 0 1 3.487-3.075m-49.963 16.987l6.758-2.535a3.626 3.626 0 0 1 3.878.872l8.528 8.805a3.626 3.626 0 0 1-.03 5.076l-11.774 11.871c-2.052 2.069-5.581.996-6.135-1.864l-3.511-18.141a3.626 3.626 0 0 1 2.286-4.084m-21.101-3.76l10.353 4.319a3.626 3.626 0 0 1 2.164 2.657l1.969 10.17c.441 2.281-1.85 4.127-3.984 3.21l-16.609-7.134a3.626 3.626 0 0 1-1.81-4.956l3.28-6.545a3.625 3.625 0 0 1 4.637-1.721m-1.834-7.285l-4.955-2.067a3.625 3.625 0 0 1-2.126-2.486l-6.357-26.022c-.658-2.696 2.65-4.548 4.604-2.578l13.85 13.972a3.625 3.625 0 0 1 1.04 2.837l-1.045 13.282c-.194 2.46-2.734 4.011-5.011 3.062m33.456.672l-15.424 5.785a3.624 3.624 0 0 1-2.669-.048l-2.477-1.033a3.626 3.626 0 0 1-2.219-3.632l1.436-18.225a3.625 3.625 0 0 1 1.04-2.267l9.337-9.423c1.925-1.942 5.225-1.136 6.037 1.475l7.127 22.895a3.626 3.626 0 0 1-2.188 4.473m27.147-10.184l-14.7 5.515a3.626 3.626 0 0 1-4.736-2.317l-1.282-4.118a3.625 3.625 0 0 1 .937-3.68l14.78-14.345c1.2-1.164 3.207-.606 3.634 1.01l3.6 13.613a3.626 3.626 0 0 1-2.233 4.322m-91.05 3.33l20.006 8.346a3.626 3.626 0 0 1 1.845 4.97l-8.104 16.17c-1.11 2.218-4.07 2.69-5.816.929l-4.534-4.575a3.626 3.626 0 0 1-.827-1.295L83.465 69.41c-1.098-2.971 1.873-5.822 4.797-4.603m-26.84 21.068l16.007 5.343c2.55.85 3.32 4.083 1.427 5.991l-17.812 17.976c-1.383 1.396-3.764.45-3.811-1.516l-.584-24.268c-.06-2.511 2.39-4.322 4.773-3.526m13.315-22.72l6.729 18.214c.824 2.228-1.299 4.419-3.552 3.667l-19.127-6.385A3.626 3.626 0 0 1 56.31 75.3l-.17-7.113a3.626 3.626 0 0 1 2.523-3.542l11.572-3.686a3.625 3.625 0 0 1 4.502 2.198m-4.313-8.574l-21.17 6.744c-2.013.64-3.535-1.846-2.048-3.346L70.83 34.139c1.615-1.63 4.376-.28 4.083 1.995L72.92 51.592a3.626 3.626 0 0 1-2.496 2.99m99.206 35.054l-9.01-9.302c-1.817-1.876-1.114-5 1.331-5.917l14.486-5.434c2.595-.973 5.278 1.206 4.858 3.945L178.6 90.472c-.451 2.944-4.063 4.117-6.159 2.002l-2.811-2.837h-.001m76.449-2.57L169.62 9.892a3.007 3.007 0 0 0-4.274 0l-34.768 35.086a3.626 3.626 0 0 1-5.15 0L90.652 9.898c-1.132-1.14-3.146-1.139-4.274.001L9.922 87.058a6.635 6.635 0 0 0 0 9.34l36.969 37.306c1.128 1.14 3.146 1.14 4.274 0L85.933 98.62a3.625 3.625 0 0 1 5.15-.001l34.776 35.08a3.011 3.011 0 0 0 4.274 0l34.785-35.073a3.626 3.626 0 0 1 5.15.002l34.767 35.087a3.009 3.009 0 0 0 4.274 0l36.97-37.307a6.635 6.635 0 0 0 0-9.34"/>
        <filter id="a" width="111.2%" height="121.5%" x="-5.6%" y="-10.7%" filterUnits="objectBoundingBox">
            <feMorphology in="SourceAlpha" operator="dilate" radius=".5" result="shadowSpreadOuter1"/>
            <feOffset in="shadowSpreadOuter1" result="shadowOffsetOuter1"/>
            <feGaussianBlur in="shadowOffsetOuter1" result="shadowBlurOuter1" stdDeviation="4"/>
            <feColorMatrix in="shadowBlurOuter1" values="0 0 0 0 1 0 0 0 0 1 0 0 0 0 1 0 0 0 0.6 0"/>
        </filter>
    </defs>
    <g fill="none" fill-rule="evenodd">
        <path d="M0 0h256v144H0z"/>
        <g>
            <use fill="#000" filter="url(#a)" xlink:href="#b"/>
            <use fill="#FFF" xlink:href="#b"/>
        </g>
    </g>
</svg>
