<svg xmlns="http://www.w3.org/2000/svg" width="340" height="275" viewBox="0 0 340 275">
    <path fill="#000" fill-opacity=".07" fill-rule="evenodd" d="M326.248 42.151l.086.158a4.385 4.385 0 0 1-1.642 5.933l-11.311 6.58a4.406 4.406 0 0 1-2.212.603 4.392 4.392 0 0 1-4.414-4.314l-.506-21.06a3.349 3.349 0 0 1 .35-1.559l.14-.288.26-.188a4.39 4.39 0 0 1 2.59-.839 4.36 4.36 0 0 1 3.12 1.302l13.54 13.672zm-17.207 40.687c.311-.1.63-.15.945-.15 1.206 0 2.293.739 2.77 1.882.474 1.14.227 2.4-.65 3.281-5.122 5.147-14.967 14.96-20.794 20.277-.444.405-1.43 1.15-2.006 1.32-.939.277-1.906-.434-2.544-1.167a3.267 3.267 0 0 1-.772-2.6l1.723-13.368a4.43 4.43 0 0 1 3.036-3.643l18.292-5.832zm16.102 27.01a4.388 4.388 0 0 1 1.239 3.688 4.386 4.386 0 0 1-2.156 3.238l-11.31 6.58a4.407 4.407 0 0 1-2.212.603 4.392 4.392 0 0 1-4.415-4.314l-.506-21.053a1.331 1.331 0 0 1 .099-.556c.413-1.006 1.794-2.399 2.788-2.813.244-.102.504-.153.771-.153.71 0 1.421.355 2.114 1.055l13.588 13.725zm2.988 7.715a4.411 4.411 0 0 1 5.35.709l4.866 4.915a4.431 4.431 0 0 1 0 6.216l-13.262 13.398a4.43 4.43 0 0 1-1.795 1.1l-10.687 3.407c-.438.14-.89.21-1.343.21-2.372 0-4.348-1.933-4.405-4.31l-.251-10.473a4.416 4.416 0 0 1 2.193-3.923l19.334-11.25zm1.69 65.868l.088.162a4.42 4.42 0 0 1 .067 4.073l-1.11 2.218a4.388 4.388 0 0 1-3.945 2.438c-.6 0-1.185-.12-1.74-.36l-21.033-9.042a4.412 4.412 0 0 1-2.59-3.218l-.747-3.864a4.417 4.417 0 0 1 1.194-3.942l1.572-1.59 4.588-4.629a4.352 4.352 0 0 1 3.113-1.298c.768 0 1.526.201 2.193.581l.152.087 18.199 18.384zm-6.101 16.732l-2.834 5.66a4.388 4.388 0 0 1-3.945 2.438 4.376 4.376 0 0 1-1.696-.341l-8.946-3.736a4.406 4.406 0 0 1-2.632-3.236l-1.701-8.796a3.762 3.762 0 0 1 .788-3.118 3.772 3.772 0 0 1 2.917-1.388 3.77 3.77 0 0 1 1.496.312l14.35 6.17a4.43 4.43 0 0 1 2.402 2.54 4.439 4.439 0 0 1-.2 3.495zm.96 16.51l5.493 22.507c.272 1.117.042 2.218-.65 3.1a3.735 3.735 0 0 1-2.914 1.424 3.594 3.594 0 0 1-2.563-1.09l-11.968-12.085a4.414 4.414 0 0 1-1.264-3.455l.904-11.487c.18-2.283 2.11-4.071 4.396-4.071.583 0 1.154.115 1.7.343l4.28 1.787a4.43 4.43 0 0 1 2.587 3.028zm-15.302-5.042l-1.24 15.763a4.424 4.424 0 0 1-1.264 2.761l-8.068 8.15a4.365 4.365 0 0 1-3.121 1.309 4.4 4.4 0 0 1-4.223-3.105l-6.158-19.802a4.42 4.42 0 0 1 2.662-5.447l13.326-5.003a4.393 4.393 0 0 1 3.247.059l2.14.894a4.407 4.407 0 0 1 2.7 4.421zm-10.28 39.319l-1.723 13.37a4.432 4.432 0 0 1-3.036 3.642l-18.292 5.833c-.311.099-.63.15-.945.15-1.206 0-2.293-.74-2.77-1.883-.474-1.14-.225-2.397.65-3.281l20.413-20.621c.638-.645 1.476-1 2.361-1 .976 0 1.906.422 2.552 1.158.635.723.915 1.658.79 2.632zm-28.072 7.024a4.422 4.422 0 0 1-1.132-1.98l-2.17-8.22a4.423 4.423 0 0 1 1.192-4.297l11.701-11.369a4.373 4.373 0 0 1 3.061-1.248 4.399 4.399 0 0 1 4.222 3.104l2.846 9.151a4.41 4.41 0 0 1-1.078 4.421l-11.355 11.47a4.379 4.379 0 0 1-3.133 1.307 4.378 4.378 0 0 1-3.134-1.308l-1.02-1.031zm-6.12-20.868l-3.11-11.775a4.403 4.403 0 0 1 2.715-5.263l12.702-4.77a4.394 4.394 0 0 1 1.549-.282 4.393 4.393 0 0 1 4.212 3.104l1.107 3.562a4.399 4.399 0 0 1-1.14 4.48l-12.77 12.407a3.139 3.139 0 0 1-2.198.897c-1.44 0-2.7-.971-3.068-2.36zm-2.514 6.257a3.71 3.71 0 0 1-2.92 1.445 3.574 3.574 0 0 1-2.55-1.086l-13.737-13.88a4.36 4.36 0 0 1-.96-4.752 4.353 4.353 0 0 1 3.976-2.769l8.492-.225.118-.002c2 0 3.752 1.352 4.264 3.287L263 240.24c.291 1.104.07 2.241-.608 3.122zm-3.912 8.281a4.387 4.387 0 0 1-2.156 3.238l-11.31 6.58a4.407 4.407 0 0 1-2.212.603 4.392 4.392 0 0 1-4.415-4.314l-.505-21.06a3.396 3.396 0 0 1 .976-2.46 3.35 3.35 0 0 1 2.398-1c.907 0 1.759.355 2.398 1l13.586 13.725a4.389 4.389 0 0 1 1.24 3.688zm-23.116-31.682l-.117.002a4.438 4.438 0 0 1-3.133-1.308l-20.242-20.453a4.418 4.418 0 0 1-.142-6.046l.021-.024 6.991-7.062.038-.037a4.394 4.394 0 0 1 3.001-1.182c1.64 0 3.132.9 3.895 2.35l15.06 28.64a3.434 3.434 0 0 1-.076 3.35 3.425 3.425 0 0 1-2.883 1.706l-2.413.064zm.512 12.666l-6.768 6.836a4.371 4.371 0 0 1-3.127 1.307 4.403 4.403 0 0 1-3.909-2.359l-15.06-28.638a3.432 3.432 0 0 1 .076-3.351 3.425 3.425 0 0 1 2.883-1.706l2.413-.064.117-.001c1.17 0 2.311.476 3.133 1.308l20.242 20.452a4.432 4.432 0 0 1 0 6.216zM234.7 269.57a4.437 4.437 0 0 1-3.155 1.337c-.474 0-.946-.077-1.402-.23l-13.83-4.62a4.387 4.387 0 0 1-2.895-3.165 4.391 4.391 0 0 1 1.158-4.131l15.39-15.547a3.166 3.166 0 0 1 2.262-.954 3.195 3.195 0 0 1 3.217 3.134l.504 20.99a4.377 4.377 0 0 1-1.249 3.186zm-24.88-10.62a4.357 4.357 0 0 1-3.119 1.3c-.955 0-1.866-.3-2.633-.87l-.078-.058-7.341-7.413-.06-.084a4.394 4.394 0 0 1 .079-5.24l11.615-15.244a4.372 4.372 0 0 1 3.503-1.738c1.645 0 3.142.904 3.907 2.358l5.724 10.885a4.4 4.4 0 0 1-.77 5.165l-10.828 10.938zm-17.772-13.512c-.98 0-1.947-.333-2.72-.937l-.065-.05-3.553-3.589-.046-.059a4.425 4.425 0 0 1-.903-3.377l4.374-28.524a4.41 4.41 0 0 1 4.242-3.744l5.366-.142.117-.002c1.643 0 3.138.904 3.903 2.359l7.043 13.392a4.434 4.434 0 0 1-.396 4.734l-13.875 18.211a4.351 4.351 0 0 1-3.487 1.728zm1.659 11.527l-1.111 2.218a4.387 4.387 0 0 1-3.945 2.438c-.6 0-1.185-.12-1.739-.359l-21.033-9.043a4.41 4.41 0 0 1-2.59-3.218l-.747-3.864a4.417 4.417 0 0 1 1.198-3.949l6.155-6.212a4.567 4.567 0 0 1 3.22-1.354c1.053 0 2.026.391 2.738 1.102 2.828 2.82 6.858 6.905 10.755 10.855 2.44 2.474 4.779 4.843 6.62 6.697 1.297 1.307 1.176 3.297.479 4.689zm-36.198-14.101a4.36 4.36 0 0 1-3.116 1.31 4.43 4.43 0 0 1-4.346-3.58l-3.034-15.69a4.404 4.404 0 0 1 2.781-4.974l5.839-2.192a4.397 4.397 0 0 1 1.549-.281c1.187 0 2.342.49 3.168 1.343l7.369 7.615c1.658 1.714 1.642 4.487-.037 6.182l-10.173 10.267zm-9.77 9.863l-6.156 6.212a4.352 4.352 0 0 1-3.113 1.298 4.44 4.44 0 0 1-2.732-.946l-.062-.05-17.5-17.679-.062-.087a4.41 4.41 0 0 1-.342-4.526l1.11-2.218a4.389 4.389 0 0 1 3.946-2.438c.6 0 1.185.121 1.739.36l21.033 9.043a4.41 4.41 0 0 1 2.59 3.218l.747 3.863a4.416 4.416 0 0 1-1.199 3.95zm-34.521-18a4.431 4.431 0 0 1-2.734-.95l-.062-.048-4.622-4.67-.055-.074a4.375 4.375 0 0 1-.602-1.084l-6.366-17.247a4.349 4.349 0 0 1 .507-4.041 4.42 4.42 0 0 1 3.617-1.913c.582 0 1.158.117 1.712.349l17.285 7.218a4.43 4.43 0 0 1 2.437 2.538 4.434 4.434 0 0 1-.192 3.515l-7.001 13.985a4.364 4.364 0 0 1-3.924 2.423zm1.593 12.602l-11.615 15.245a4.372 4.372 0 0 1-3.503 1.738 4.403 4.403 0 0 1-3.908-2.359l-5.724-10.885a4.401 4.401 0 0 1 .77-5.164l10.829-10.938a4.356 4.356 0 0 1 3.118-1.301c.955 0 1.865.3 2.632.87l.078.057 7.342 7.414.06.084a4.393 4.393 0 0 1-.079 5.239zM81.513 250.7a3.167 3.167 0 0 1-2.263.953 3.196 3.196 0 0 1-3.216-3.134l-.504-20.989a4.378 4.378 0 0 1 1.249-3.186 4.437 4.437 0 0 1 3.155-1.338c.474 0 .946.077 1.402.23l13.83 4.62a4.388 4.388 0 0 1 2.894 3.166 4.393 4.393 0 0 1-1.158 4.131l-15.39 15.547zm-6.424-41.52a4.44 4.44 0 0 1 3.071-4.312l9.998-3.188c.435-.139.886-.21 1.34-.21 1.837 0 3.5 1.16 4.136 2.887l5.814 15.752a3.675 3.675 0 0 1-.43 3.415 3.725 3.725 0 0 1-3.05 1.61c-.401 0-.802-.066-1.192-.197l-16.526-5.522a4.427 4.427 0 0 1-3.013-4.082l-.148-6.152zm-4.284-4.744c-.311.1-.63.15-.945.15-1.206 0-2.293-.739-2.77-1.882-.474-1.14-.225-2.397.65-3.281l3.266-3.3.074-.067 17.153-17.313.042-.04a3.316 3.316 0 0 1 2.25-.89c.974 0 1.901.42 2.545 1.153.632.72.91 1.653.786 2.626l-1.723 13.37a4.43 4.43 0 0 1-3.036 3.642l-18.292 5.832zm1.815 55.247a3.334 3.334 0 0 1-2.386.996 3.402 3.402 0 0 1-2.05-.692l-.07-.055-14.085-14.231-.035-.043a4.418 4.418 0 0 1-.953-3.6 4.378 4.378 0 0 1 2.114-3.026l11.31-6.58a4.403 4.403 0 0 1 2.212-.603 4.391 4.391 0 0 1 4.414 4.314l.506 21.06a3.396 3.396 0 0 1-.977 2.46zm-3.224 9.444a4.377 4.377 0 0 1-3.866 2.523l-8.492.225-.118.002a4.415 4.415 0 0 1-4.264-3.287l-3.925-14.86c-.29-1.103-.07-2.24.607-3.12a3.708 3.708 0 0 1 2.918-1.444c.768 0 1.502.247 2.125.714l.075.056 14.394 14.54.046.06a4.386 4.386 0 0 1 .5 4.591zm-23.07-31.225l-.065-.05-5.495-5.553-.044-.056a4.413 4.413 0 0 1 .311-5.84l13.263-13.399a4.428 4.428 0 0 1 1.795-1.099l10.686-3.407c.438-.14.89-.21 1.344-.21 2.372 0 4.348 1.933 4.405 4.31l.251 10.473a4.417 4.417 0 0 1-2.193 3.923l-19.335 11.25a4.39 4.39 0 0 1-2.205.594c-.979 0-1.944-.332-2.718-.936zm-3.51 12.593l-11.702 11.368a4.374 4.374 0 0 1-3.061 1.249 4.4 4.4 0 0 1-4.222-3.105l-2.846-9.151a4.41 4.41 0 0 1 1.078-4.42l11.355-11.47a4.352 4.352 0 0 1 3.114-1.3c1.013 0 2.004.353 2.791.994l.053.043 1.524 1.54.035.04c.441.527.745 1.097.902 1.694l2.171 8.22a4.425 4.425 0 0 1-1.192 4.298zm-24.719-4.741c-.638.644-1.477 1-2.361 1a3.399 3.399 0 0 1-2.553-1.158 3.293 3.293 0 0 1-.789-2.632l1.723-13.37a4.43 4.43 0 0 1 3.035-3.642l18.292-5.832c.312-.1.63-.15.946-.15 1.206 0 2.293.738 2.769 1.882.474 1.14.225 2.397-.65 3.281l-20.412 20.62zm-10.78-40.026c-.501-1.412-.787-3.687-.085-4.697a3.725 3.725 0 0 1 3.05-1.61c.4 0 .802.067 1.192.197L28 205.142a4.426 4.426 0 0 1 3.013 4.082l.147 6.152a4.438 4.438 0 0 1-3.07 4.313l-9.999 3.188c-.434.138-.885.21-1.339.21-1.837 0-3.5-1.16-5.208-4.707 0 0-3.094-9.454-4.228-12.651zm.362-26.017l-.504-20.222c-.029-1.2.463-2.286 1.249-3.186 1.89-2.163 4.101-2.028 4.557-1.876l13.83 4.621a4.34 4.34 0 0 1 2.777 2.788 4.443 4.443 0 0 1-.586 3.928l-.062.087-16.254 16.42-.127.08a3.161 3.161 0 0 1-1.677.48 3.182 3.182 0 0 1-3.203-3.12zm1.214 10.272l.061-.087 16.255-16.42.127-.08a3.166 3.166 0 0 1 1.677-.48 3.181 3.181 0 0 1 3.203 3.12l.504 20.99a4.377 4.377 0 0 1-1.249 3.186 4.438 4.438 0 0 1-3.156 1.338c-.473 0-.945-.077-1.401-.23l-13.83-4.621a4.34 4.34 0 0 1-2.777-2.788 4.443 4.443 0 0 1 .586-3.928zm.912-53.923l9.999-3.189c.434-.138.885-.209 1.338-.209a4.43 4.43 0 0 1 4.138 2.886l5.814 15.752a3.676 3.676 0 0 1-.431 3.415 3.724 3.724 0 0 1-3.05 1.61 3.76 3.76 0 0 1-1.192-.196l-16.526-5.522a4.426 4.426 0 0 1-3.013-4.082l-.147-6.152a4.438 4.438 0 0 1 3.07-4.313zm3.056-22.817c-.364.358-1.22.981-1.713 1.111-1.63.43-2.982-1.443-3.022-3.117L7.6 91.016c-.028-1.2.437-3.099 1.27-3.954a4.436 4.436 0 0 1 3.156-1.338c.475 0 .946.078 1.403.23l13.83 4.621c2.017.674 3.66 2.736 2.954 4.768-.107.308-.449.88-.67 1.119-4.487 4.852-12.282 12.467-16.682 16.782zM7.16 72.667c-.047-1.948 1.238-4.49 3.092-5.081l9.998-3.188c.435-.139.886-.21 1.34-.21 1.837 0 3.5 1.16 4.137 2.887l5.814 15.752a3.675 3.675 0 0 1-.431 3.415 3.725 3.725 0 0 1-3.05 1.61 3.76 3.76 0 0 1-1.192-.196l-16.526-5.522A4.427 4.427 0 0 1 7.33 78.05l-.169-5.384zm13.316-35.138l-.37.186c-.593.29-1.082.351-1.745.351-2.145 0-3.926-2.733-4.33-4.832l-3.035-14.422a4.405 4.405 0 0 1 2.781-4.973l5.839-2.192a4.39 4.39 0 0 1 1.548-.282c1.188 0 2.343.49 3.17 1.344l7.368 7.615a4.385 4.385 0 0 1 .825 4.922l-.094.204-11.957 12.079zm8.092-27.113a4.401 4.401 0 0 1 2.754-3.166S40.7 3.7 43.838 2.55c1.44-.526 4.283.542 4.904 1.266a4.404 4.404 0 0 1 1.005 3.539l-2.326 15.173a4.384 4.384 0 0 1-4.36 3.737 4.379 4.379 0 0 1-2.976-1.17l-.02-.02-10.362-10.618a4.405 4.405 0 0 1-1.135-4.041zm22.021 52.66a4.38 4.38 0 0 1-.806 3.764 4.45 4.45 0 0 1-3.47 1.705 4.408 4.408 0 0 1-1.707-.346l-14.99-6.26a4.427 4.427 0 0 1-2.677-4.64l3.147-24.431c.056-.43.18-.858.37-1.273l.095-.207 2.876-2.903a4.378 4.378 0 0 1 3.132-1.306c1.186 0 2.299.464 3.133 1.308l2.48 2.504.042.045c.5.557.852 1.212 1.02 1.896l7.355 30.144zm-.273-18.02a3.727 3.727 0 0 1 2.91-1.42c.811 0 1.582.272 2.228.786l.058.047 12.46 12.587.035.043c.747.9 1.11 2.022 1.02 3.16l-.904 11.486c-.18 2.283-2.111 4.072-4.396 4.072a4.39 4.39 0 0 1-1.7-.343l-4.28-1.788a4.43 4.43 0 0 1-2.587-3.027l-5.492-22.506c-.272-1.117-.042-2.216.648-3.096zm10.335-4.562L72.266 25.25a4.372 4.372 0 0 1 3.503-1.738c1.645 0 3.142.904 3.907 2.359L85.4 36.755a4.387 4.387 0 0 1 .105 3.886l-.095.208-11.727 11.846a4.378 4.378 0 0 1-3.133 1.307 4.377 4.377 0 0 1-3.133-1.306l-6.628-6.693-.039-.048a4.398 4.398 0 0 1-.1-5.46zm27.728 10.33l6.158 19.802a4.42 4.42 0 0 1-2.663 5.446c-3.331 1.251-9.994 3.752-13.325 5.004a4.389 4.389 0 0 1-3.247-.06l-2.14-.893a4.407 4.407 0 0 1-2.7-4.422l1.24-15.761c.04-.506.167-1 .378-1.47l.095-.21 9.893-9.994.199-.095a4.426 4.426 0 0 1 1.908-.435c1.94 0 3.63 1.241 4.204 3.088zm.958-9.797l.094-.198 13.143-13.278.203-.096a4.445 4.445 0 0 1 1.89-.425c1.13 0 2.204.429 3.025 1.208l1.19 1.203c.512.542.88 1.198 1.065 1.897l2.17 8.221a4.424 4.424 0 0 1-1.192 4.297L99.223 55.224a4.373 4.373 0 0 1-3.06 1.249 4.4 4.4 0 0 1-4.223-3.105l-2.845-9.15a4.4 4.4 0 0 1 .242-3.19zm16.658-22.173a4.356 4.356 0 0 1 3.937-2.681l8.492-.226a4.415 4.415 0 0 1 4.381 3.286l3.925 14.86c.291 1.102.07 2.239-.606 3.118a3.705 3.705 0 0 1-2.916 1.442 3.527 3.527 0 0 1-2.426-.963l-.02-.02-13.932-14.076-.035-.037a4.369 4.369 0 0 1-.8-4.703zm22.246-4.935l12.702-4.77a4.394 4.394 0 0 1 1.55-.282 4.392 4.392 0 0 1 4.21 3.104l1.109 3.562a4.397 4.397 0 0 1-1.14 4.48l-12.77 12.408a3.14 3.14 0 0 1-2.198.896c-1.44 0-2.7-.97-3.068-2.36l-3.11-11.775a4.403 4.403 0 0 1 2.715-5.263zm23.39 13.896l2.846 9.151a4.426 4.426 0 0 1-.98 4.298l-.015.017-11.552 11.67-.043.04a4.391 4.391 0 0 1-6.008-.046l-1.19-1.203a4.429 4.429 0 0 1-1.064-1.897l-2.171-8.22a4.424 4.424 0 0 1 1.192-4.297l11.701-11.369a4.375 4.375 0 0 1 3.062-1.248 4.4 4.4 0 0 1 4.222 3.104zm6.143 21.048l15.06 28.638a3.433 3.433 0 0 1-.076 3.351 3.425 3.425 0 0 1-2.883 1.706l-2.413.064a4.437 4.437 0 0 1-3.25-1.306L143.97 60.863a4.419 4.419 0 0 1-.143-6.047l.022-.024 6.99-7.062.039-.036a4.395 4.395 0 0 1 3.001-1.182c1.64 0 3.132.9 3.895 2.35zm1.244-9.39l.026-.03 10.844-10.955a4.378 4.378 0 0 1 3.133-1.307c1.186 0 2.298.464 3.133 1.307l7.461 7.535.096.218a4.422 4.422 0 0 1-.533 4.448l-11.615 15.246a4.372 4.372 0 0 1-3.503 1.738 4.403 4.403 0 0 1-3.907-2.36l-5.724-10.884a4.385 4.385 0 0 1 .589-4.956zm15.526-18.548l.905-11.487c.179-2.283 2.11-4.071 4.396-4.071a4.39 4.39 0 0 1 1.699.343l4.28 1.787a4.43 4.43 0 0 1 2.587 3.028l5.492 22.506c.272 1.116.042 2.215-.648 3.095a3.73 3.73 0 0 1-2.91 1.421c-.445 0-.878-.082-1.29-.243l-.252-.098s-11.002-9.88-13.773-13.915c-.032-.047-.07-.158-.094-.21a4.433 4.433 0 0 1-.392-2.156zm19.244-6.582a4.452 4.452 0 0 1 3.47-1.705c.582 0 1.157.117 1.707.347l14.991 6.26a4.427 4.427 0 0 1 2.677 4.64l-3.148 24.432a4.397 4.397 0 0 1-1.092 2.37l-.022.024-1.969 1.987a4.378 4.378 0 0 1-3.132 1.307 4.378 4.378 0 0 1-3.133-1.308l-3.394-3.43-.106-.225a4.105 4.105 0 0 1-.299-.79l-7.356-30.144a4.38 4.38 0 0 1 .806-3.765zm23.835 22.53l1.722-13.369a4.43 4.43 0 0 1 3.036-3.642l18.292-5.833c.312-.1.63-.15.946-.15 1.206 0 2.293.739 2.769 1.882.474 1.14.226 2.397-.65 3.281l-10.14 10.243-10.322 10.419a3.31 3.31 0 0 1-2.317.954c-.974 0-1.903-.42-2.548-1.155a3.29 3.29 0 0 1-.788-2.63zm44.297 9.217c.027.038.066.122.087.162a4.42 4.42 0 0 1 .067 4.073l-1.11 2.22a4.39 4.39 0 0 1-3.945 2.437c-.6 0-1.186-.121-1.74-.36l-21.033-9.043a4.41 4.41 0 0 1-2.59-3.218l-.747-3.864a4.42 4.42 0 0 1 1.193-3.941l6.16-6.22a4.353 4.353 0 0 1 3.114-1.297c.768 0 1.526.2 2.193.58.038.022.12.057.152.087 5.35 5.173 14.35 13.186 18.2 18.384zm-15.645-25.778L262.36 4.523a4.428 4.428 0 0 1 1.794-1.1s7.89-2.123 10.693-2.09c1.798.021 2.876.913 2.921 2.804l.252 12.843a4.415 4.415 0 0 1-2.193 3.924L256.49 32.153a4.38 4.38 0 0 1-2.2.594c-.756 0-1.873-.251-2.323-.654-2.194-1.965-4.558-4.204-6.317-6.38-.855-1.056-.743-4.02.624-5.4zm32.564 30.822c.012 1.576-2.403 2.873-3.34 2.873a4.36 4.36 0 0 1-3.12-1.302c-3.384-3.419-9.888-9.91-13.625-13.83-1.665-1.746-1.247-3.95 1.643-5.933 2.697-1.852 11.31-6.581 11.31-6.581a4.404 4.404 0 0 1 2.211-.602 4.392 4.392 0 0 1 4.415 4.313s.466 15.795.506 21.062zm6.16 41.56l-3.147 24.427c-.019.16-.061.305-.13.445-.585 1.18-2.838 3.098-3.592 3.72a4.35 4.35 0 0 1-3.065 1.25 4.43 4.43 0 0 1-2.858-1.05l-.042-.035c-.602-.557-1.73-1.747-2.307-2.33a4.416 4.416 0 0 1-1.152-2.06l-7.356-30.144a4.379 4.379 0 0 1 .805-3.765 4.451 4.451 0 0 1 3.47-1.705 4.41 4.41 0 0 1 1.708.347l14.99 6.26a4.427 4.427 0 0 1 2.677 4.64zm16.222 58.244l-9.998 3.188a4.4 4.4 0 0 1-1.34.209c-1.837 0-3.5-1.16-4.137-2.886l-5.814-15.752a3.676 3.676 0 0 1 .431-3.415 3.725 3.725 0 0 1 3.05-1.61c.4 0 .802.066 1.192.197l16.526 5.522a4.425 4.425 0 0 1 3.012 4.081l.148 6.153a4.438 4.438 0 0 1-3.07 4.313zm-10.043 26.106a3.312 3.312 0 0 1-2.317.954 3.395 3.395 0 0 1-2.548-1.155 3.29 3.29 0 0 1-.788-2.63l1.723-13.368a4.43 4.43 0 0 1 3.036-3.643l18.291-5.832c.312-.1.63-.15.946-.15 1.206 0 2.293.738 2.77 1.881.474 1.14.225 2.398-.65 3.282l-10.099 10.201-10.364 10.46zM280.03 198.2c-1.61-1.664-1.648-4.315-.087-6.034l.018-.02 10.334-10.44a4.368 4.368 0 0 1 3.068-1.259c2.148 0 3.932 1.47 4.34 3.574l3.033 15.69a4.404 4.404 0 0 1-2.781 4.974l-5.838 2.192a4.394 4.394 0 0 1-1.55.282 4.433 4.433 0 0 1-3.168-1.344l-7.369-7.615zm-18.045 12.97l2.327-15.174a4.382 4.382 0 0 1 4.36-3.732 4.34 4.34 0 0 1 1.873.42l.2.095 11.284 11.288a4.405 4.405 0 0 1 1.135 4.041 4.401 4.401 0 0 1-2.754 3.165l-12.516 4.7a4.419 4.419 0 0 1-1.557.286 4.41 4.41 0 0 1-3.346-1.551 4.405 4.405 0 0 1-1.006-3.539zm-23.646-12.054l13.875-18.21a4.35 4.35 0 0 1 3.489-1.727c.644 0 1.293.144 1.876.417l.207.096 4.732 4.779.095.203c.374.81.504 1.68.375 2.516l-4.373 28.523a4.41 4.41 0 0 1-4.243 3.744l-5.366.143-.118.001a4.399 4.399 0 0 1-3.902-2.358l-7.043-13.393a4.434 4.434 0 0 1 .396-4.734zm-11.418-22.303l.026-.03 10.844-10.954a4.377 4.377 0 0 1 3.133-1.307c1.186 0 2.298.463 3.133 1.306l7.462 7.535.095.219a4.421 4.421 0 0 1-.533 4.448l-11.615 15.245a4.372 4.372 0 0 1-3.503 1.738 4.402 4.402 0 0 1-3.907-2.359l-5.724-10.885a4.384 4.384 0 0 1 .59-4.956zm-9.983-28.914a4.42 4.42 0 0 1 2.662-5.447l13.325-5.004a4.39 4.39 0 0 1 1.55-.281c.586 0 1.157.114 1.698.34l2.14.894a4.406 4.406 0 0 1 2.699 4.422l-1.24 15.763a4.38 4.38 0 0 1-1.1 2.568l-.024.028-8.301 8.386-.034.033a4.383 4.383 0 0 1-3.008 1.195 4.386 4.386 0 0 1-4.21-3.096l-6.157-19.801zm-12.678 42.78l-.089-.063-1.824-1.843-.052-.069c-.38-.502-.63-.999-.767-1.518l-2.172-8.221a4.425 4.425 0 0 1 1.193-4.297L212.25 163.3a4.374 4.374 0 0 1 3.06-1.249 4.4 4.4 0 0 1 4.223 3.105l2.846 9.151a4.38 4.38 0 0 1-.992 4.31c-2.95 3.115-8.685 8.908-11.577 11.695a4.265 4.265 0 0 1-2.976 1.193 4.409 4.409 0 0 1-2.575-.825zm-19.51-6.306c-.292-1.102-.07-2.239.606-3.119a3.707 3.707 0 0 1 2.918-1.442c.7 0 1.38.207 1.966.6l.106.071 14.66 14.814.065.093a4.403 4.403 0 0 1 .286 4.498 4.339 4.339 0 0 1-3.81 2.406l-8.491.226-.118.001a4.416 4.416 0 0 1-4.264-3.287l-3.925-14.86zm-24.901 6.278l-2.846-9.152c-.457-1.47-.113-3.049.92-4.222l.024-.027 11.707-11.826.037-.032a4.404 4.404 0 0 1 2.886-1.08 4.36 4.36 0 0 1 2.545.815l.09.064 1.824 1.843.052.069c.379.502.63.999.767 1.518l2.171 8.22a4.423 4.423 0 0 1-1.192 4.298l-11.702 11.368a4.374 4.374 0 0 1-3.06 1.249 4.4 4.4 0 0 1-4.223-3.105zm-14.941 27.99a4.388 4.388 0 0 1-1.698-.341l-2.14-.894a4.406 4.406 0 0 1-2.7-4.422l1.241-15.763a4.392 4.392 0 0 1 1.005-2.456l.037-.045 8.465-8.55.028-.026a4.394 4.394 0 0 1 2.938-1.13 4.38 4.38 0 0 1 4.203 3.092l6.158 19.802a4.42 4.42 0 0 1-2.662 5.447l-13.326 5.004a4.387 4.387 0 0 1-1.55.281zm-18.045.151a4.388 4.388 0 0 1 3.945-2.437c.584 0 1.155.114 1.697.34l8.945 3.736a4.405 4.405 0 0 1 2.632 3.236l1.701 8.796a3.762 3.762 0 0 1-.787 3.119 3.774 3.774 0 0 1-2.917 1.387 3.77 3.77 0 0 1-1.497-.312l-14.35-6.17a4.43 4.43 0 0 1-2.402-2.54 4.436 4.436 0 0 1 .2-3.494l2.833-5.66zm-9.287-33.357c-.272-1.116-.042-2.215.648-3.095a3.731 3.731 0 0 1 2.912-1.42c.456 0 .9.085 1.321.255l.245.098 13.73 13.872.094.203a4.42 4.42 0 0 1 .41 2.193l-.905 11.487c-.18 2.283-2.11 4.071-4.396 4.071a4.39 4.39 0 0 1-1.7-.342l-4.28-1.788a4.43 4.43 0 0 1-2.586-3.027l-5.493-22.507zm-22.729 9.147l3.148-24.432a4.407 4.407 0 0 1 .99-2.249l.035-.043 2.07-2.09a4.378 4.378 0 0 1 3.132-1.306c1.186 0 2.299.464 3.134 1.307l3.37 3.405.092.195c.102.212.24.503.324.846l7.355 30.143a4.38 4.38 0 0 1-.805 3.765 4.451 4.451 0 0 1-3.47 1.705 4.408 4.408 0 0 1-1.708-.347l-14.99-6.26a4.426 4.426 0 0 1-2.677-4.64zm-16.188-38.487a4.405 4.405 0 0 1 2.782-4.973l5.838-2.193a4.392 4.392 0 0 1 1.549-.281c1.187 0 2.343.49 3.169 1.343l7.368 7.616a4.393 4.393 0 0 1 .172 5.933l-.03.036-10.443 10.55-.034.032a4.379 4.379 0 0 1-3.004 1.196c-2.145 0-3.926-1.467-4.333-3.569l-3.034-15.69zm-29.087 16.281l-.087-.162a4.42 4.42 0 0 1-.067-4.073l1.111-2.218a4.388 4.388 0 0 1 3.945-2.438c.6 0 1.185.12 1.74.359l21.032 9.043a4.412 4.412 0 0 1 2.59 3.218l.747 3.864a4.427 4.427 0 0 1-1.124 3.859l-6.294 6.358a4.364 4.364 0 0 1-3.055 1.24c-.765 0-1.521-.2-2.186-.579-.039-.022-.12-.057-.153-.087-5.12-4.732-18.199-18.384-18.199-18.384zm-13.905 25.187L55 186.313a4.38 4.38 0 0 1 2.2-.593c.756 0 1.504.196 2.165.565.04.022.121.061.157.088 1.787 1.36 4.971 4.584 6.318 6.38.026.035.064.116.085.154.949 1.709.657 3.867-.71 5.247l-13.263 13.399a4.432 4.432 0 0 1-1.794 1.099l-10.687 3.407c-.437.14-.89.21-1.343.21-2.372 0-4.348-1.934-4.405-4.31l-.252-10.473a4.417 4.417 0 0 1 2.194-3.923zm-2.663-31.789l.14-.288.259-.187a4.388 4.388 0 0 1 2.59-.84c1.18 0 2.289.463 3.12 1.302l13.54 13.673.086.158a4.387 4.387 0 0 1-1.643 5.933l-11.31 6.58a4.404 4.404 0 0 1-2.212.603 4.392 4.392 0 0 1-4.415-4.314l-.505-21.06a3.343 3.343 0 0 1 .35-1.56zm-2.074-27.97a4.42 4.42 0 0 1 3.617-1.912c.582 0 1.158.117 1.712.348l17.285 7.218a4.427 4.427 0 0 1 2.437 2.538 4.435 4.435 0 0 1-.192 3.515l-7.001 13.985a4.379 4.379 0 0 1-3.938 2.43 4.41 4.41 0 0 1-2.14-.554l-.159-.089-5.391-5.446-.111-.203a3.82 3.82 0 0 1-.26-.542l-6.365-17.247a4.347 4.347 0 0 1 .506-4.04zm5.497-41.823c1.186 0 2.298.464 3.133 1.306l2.218 2.24.026.03c.49.56.82 1.182.983 1.85l7.356 30.143a4.38 4.38 0 0 1-.806 3.765 4.45 4.45 0 0 1-3.47 1.705 4.413 4.413 0 0 1-1.707-.347l-14.99-6.26a4.426 4.426 0 0 1-2.677-4.64s2.226-16.147 2.948-23.478c.048-.489.502-1.397.773-1.807.614-.925 3.08-3.2 3.08-3.2a4.377 4.377 0 0 1 3.133-1.307zm19.81-14.944l-7.002 13.985a4.37 4.37 0 0 1-3.93 2.426 4.407 4.407 0 0 1-2.913-1.102l-.033-.029-4.304-4.346-.033-.038a4.413 4.413 0 0 1-.786-1.315L30.87 73.371a4.35 4.35 0 0 1 .507-4.04 4.42 4.42 0 0 1 3.616-1.914c.582 0 1.159.117 1.712.349l17.285 7.218a4.429 4.429 0 0 1 2.437 2.538 4.435 4.435 0 0 1-.191 3.515zM77.086 98.3a3.773 3.773 0 0 1-2.916 1.387 3.772 3.772 0 0 1-1.496-.311l-14.35-6.17a4.432 4.432 0 0 1-2.403-2.542 4.437 4.437 0 0 1 .2-3.493l2.834-5.66a4.388 4.388 0 0 1 3.944-2.438c.585 0 1.155.115 1.697.341l8.946 3.735a4.404 4.404 0 0 1 2.632 3.236l1.7 8.796a3.762 3.762 0 0 1-.787 3.12zm3.196 9.332l.748 3.864c.083.431.246.937.024 1.405-1.221 2.57-7.818 8.27-7.818 8.27a4.376 4.376 0 0 1-3.133 1.307 4.378 4.378 0 0 1-3.133-1.307l-16.56-16.722-.043-.054a4.427 4.427 0 0 1-.503-4.727l1.111-2.219a4.388 4.388 0 0 1 3.945-2.437c.6 0 1.185.12 1.74.359l21.033 9.043a4.41 4.41 0 0 1 2.59 3.218zm19.53-18.498c.92.951 1.6 2.315 1.197 3.598-.089.283-.345.84-.557 1.046-3.559 3.459-8.355 8.776-11.861 12.287-.303.303-1.125.638-1.535.763-.184.057-.387.038-.58.038-2.149 0-3.932-1.461-4.337-3.554l-3.034-15.69a4.404 4.404 0 0 1 2.782-4.973l5.838-2.193a4.388 4.388 0 0 1 1.549-.281c1.187 0 2.342.49 3.169 1.343l7.368 7.616zm18.233-27.131a4.403 4.403 0 0 1-2.715 5.262l-12.702 4.77a4.394 4.394 0 0 1-1.55.282 4.392 4.392 0 0 1-4.21-3.104l-1.108-3.561a4.397 4.397 0 0 1 1.14-4.481l12.77-12.407a3.14 3.14 0 0 1 2.197-.896c1.44 0 2.701.97 3.068 2.36l3.11 11.775zm19.531.328a4.356 4.356 0 0 1-3.937 2.681c-2.123.056-8.57.227-8.61.227-1.999 0-3.752-1.351-4.263-3.287l-3.925-14.86c-.291-1.103-.07-2.24.606-3.119a3.706 3.706 0 0 1 2.916-1.442c.904 0 1.742.333 2.425.963l.021.02s10.484 10.524 13.932 14.077l.035.037c1.19 1.276 1.484 3.09.8 4.703zm4.322 21.152a4.433 4.433 0 0 1-.396 4.734l-13.875 18.212a4.355 4.355 0 0 1-3.49 1.729 4.415 4.415 0 0 1-2.92-1.104l-.033-.03-3.26-3.293-.027-.032a4.404 4.404 0 0 1-1.044-3.555l4.374-28.524a4.41 4.41 0 0 1 4.243-3.744l5.366-.142.117-.002c1.642 0 3.138.904 3.903 2.359l7.042 13.392zm27.204 9.826c-.146.361-.52 1.06-.785 1.347-2.371 2.58-8.597 8.386-8.597 8.386l-.05.041c-.55.453-1.194.692-1.863.692-1.662 0-3-1.425-3.642-2.645l-15.06-28.638a3.433 3.433 0 0 1 .076-3.351 3.425 3.425 0 0 1 2.882-1.705l2.413-.064a4.44 4.44 0 0 1 3.251 1.306l20.241 20.452c1.09 1.1 1.723 2.731 1.134 4.18zm6.726 3.55l6.51 6.578a4.438 4.438 0 0 1 .375 5.785l-11.615 15.245a4.372 4.372 0 0 1-3.503 1.738 4.402 4.402 0 0 1-3.908-2.358s-4.294-8.164-5.724-10.886c-.784-1.491-.539-3.02.708-4.422 2.58-2.902 8.177-8.758 11.547-11.757a4.149 4.149 0 0 1 2.761-1.047c1.087 0 2.152.42 2.849 1.124zm-1.505-9.108a4.353 4.353 0 0 1 3.977-2.769l8.492-.225a4.415 4.415 0 0 1 4.381 3.285l3.925 14.86c.29 1.104.07 2.241-.608 3.122a3.71 3.71 0 0 1-2.92 1.445 3.576 3.576 0 0 1-2.55-1.086l-13.737-13.88a4.36 4.36 0 0 1-.96-4.752zm20.762-37.9l-4.373 28.523a4.41 4.41 0 0 1-4.243 3.744s-5.444.144-5.483.144a4.399 4.399 0 0 1-3.903-2.359L170.04 66.51a4.434 4.434 0 0 1 .396-4.735l13.875-18.21a4.351 4.351 0 0 1 3.488-1.726c.645 0 1.294.144 1.877.416l.208.097 4.732 4.778.094.204c.373.81.504 1.68.375 2.515zm19.04 16.877a4.404 4.404 0 0 1 1.136 4.04 4.4 4.4 0 0 1-2.754 3.166l-12.516 4.7a4.413 4.413 0 0 1-1.557.285 4.41 4.41 0 0 1-3.347-1.55 4.404 4.404 0 0 1-1.005-3.54l2.327-15.173a4.382 4.382 0 0 1 4.36-3.731 4.34 4.34 0 0 1 1.873.42l.203.096 11.28 11.287zm15.927.618l-5.839 2.192a4.394 4.394 0 0 1-1.548.282 4.433 4.433 0 0 1-3.17-1.344l-7.368-7.615c-1.61-1.664-1.648-4.315-.088-6.034l.018-.02 10.335-10.44a4.367 4.367 0 0 1 3.068-1.26c2.148 0 3.932 1.47 4.34 3.575l3.033 15.69a4.404 4.404 0 0 1-2.781 4.974zm4.887 1.29c.586 0 1.157.115 1.698.34l2.14.894a4.406 4.406 0 0 1 2.7 4.422s-.94 10.344-1.224 13.795c-.008.092-.405 2.768-.831 3.582-1.527 2.914-6.44 7.146-9.267 9.34-.53.412-2.163 1.242-2.384 1.242a4.38 4.38 0 0 1-4.211-3.081l-6.158-19.803a4.42 4.42 0 0 1 2.662-5.446l13.326-5.004a4.395 4.395 0 0 1 1.549-.281zm20.879-5.813l-2.834 5.66a4.389 4.389 0 0 1-3.945 2.438 4.383 4.383 0 0 1-1.697-.34l-8.945-3.736a4.404 4.404 0 0 1-2.632-3.236l-1.7-8.796a3.763 3.763 0 0 1 .787-3.119 3.773 3.773 0 0 1 2.917-1.387c.512 0 1.015.105 1.496.311l14.35 6.17a4.432 4.432 0 0 1 2.403 2.542 4.437 4.437 0 0 1-.2 3.493zm-.307 9.648a4.436 4.436 0 0 1 .192-3.515l7.002-13.985a4.378 4.378 0 0 1 3.937-2.43c.749 0 1.49.192 2.14.555 0 0 .123.06.16.088 1.525 1.158 5.39 5.446 5.39 5.446l.11.2c.08.145.18.324.261.545l6.366 17.247a4.35 4.35 0 0 1-.507 4.041 4.42 4.42 0 0 1-3.617 1.913 4.422 4.422 0 0 1-1.712-.349l-17.285-7.218a4.43 4.43 0 0 1-2.437-2.538zm6.11 32.47a3.734 3.734 0 0 1-2.914 1.423 3.594 3.594 0 0 1-2.563-1.09l-11.968-12.084a4.415 4.415 0 0 1-1.264-3.455l.904-11.487c.18-2.283 2.11-4.071 4.396-4.071.583 0 1.154.115 1.7.342l4.28 1.788a4.43 4.43 0 0 1 2.586 3.027l5.493 22.507c.272 1.117.041 2.218-.65 3.1zm18.476 44.254a4.42 4.42 0 0 1-3.617 1.913 4.423 4.423 0 0 1-1.712-.349l-17.286-7.218a4.429 4.429 0 0 1-2.436-2.538 4.435 4.435 0 0 1 .192-3.515l7.001-13.985a4.391 4.391 0 0 1 3.95-2.438 4.37 4.37 0 0 1 3.126 1.308l3.918 3.956c.446.45.784.982 1.005 1.578l6.366 17.247a4.35 4.35 0 0 1-.507 4.04zm-19.213 6.254a4.38 4.38 0 0 1 .806-3.764 4.451 4.451 0 0 1 3.47-1.705c.582 0 1.157.116 1.707.346l14.991 6.26a4.425 4.425 0 0 1 2.676 4.64l-3.147 24.432a4.399 4.399 0 0 1-1.091 2.37l-.023.024-1.97 1.988a4.378 4.378 0 0 1-3.131 1.306 4.377 4.377 0 0 1-3.133-1.308l-3.394-3.429-.105-.224a4.13 4.13 0 0 1-.3-.792l-7.356-30.144zm-18.437 2.817l.903-11.486c.18-2.283 2.111-4.072 4.397-4.072a4.39 4.39 0 0 1 1.699.343l4.28 1.788a4.43 4.43 0 0 1 2.587 3.027l5.492 22.507c.273 1.116.042 2.215-.647 3.094a3.73 3.73 0 0 1-2.912 1.421c-.444 0-.877-.081-1.289-.242l-.252-.099-13.773-13.914-.095-.21a4.429 4.429 0 0 1-.39-2.157zm-8.061-38.04a3.773 3.773 0 0 1 2.917-1.387 3.77 3.77 0 0 1 1.497.311l14.35 6.17a4.43 4.43 0 0 1 2.402 2.542 4.437 4.437 0 0 1-.2 3.493l-2.833 5.66a4.388 4.388 0 0 1-3.945 2.438 4.384 4.384 0 0 1-1.697-.34l-8.946-3.736a4.405 4.405 0 0 1-2.631-3.236l-1.701-8.796a3.762 3.762 0 0 1 .787-3.119zm-3.195-9.332l-.747-3.863c-.087-.452.718-2.306 1.181-2.951 1.382-1.928 6.63-6.782 6.63-6.782a4.353 4.353 0 0 1 3.115-1.3c1.053 0 2.073.378 2.875 1.064l.04.034 16.513 16.676a4.416 4.416 0 0 1 .811 5.086l-1.111 2.219a4.388 4.388 0 0 1-3.945 2.437c-.6 0-1.185-.12-1.739-.359l-21.033-9.043a4.41 4.41 0 0 1-2.59-3.218zm-19.529 18.499a4.39 4.39 0 0 1-1.223-2.788c-.038-.63.374-1.585.92-2.13 2.169-2.164 9.441-9.434 11.958-12.086.32-.336 1.05-.72 1.588-.73h.092c2.149 0 3.932 1.461 4.337 3.555l3.034 15.69a4.404 4.404 0 0 1-2.782 4.974l-5.838 2.192a4.393 4.393 0 0 1-1.548.281 4.434 4.434 0 0 1-3.17-1.343l-7.368-7.615zm-18.234 27.13a4.403 4.403 0 0 1 2.715-5.262l12.702-4.77a4.392 4.392 0 0 1 1.55-.283 4.392 4.392 0 0 1 4.211 3.105l1.107 3.56a4.398 4.398 0 0 1-1.139 4.482l-12.77 12.407a3.14 3.14 0 0 1-2.198.896c-1.44 0-2.701-.97-3.068-2.36l-3.11-11.774zm-19.403-.604a4.339 4.339 0 0 1 3.809-2.405l8.492-.226.118-.001c1.999 0 3.752 1.351 4.263 3.286l3.925 14.861c.29 1.1.048 2.264-.667 3.193-.721.938-1.8 1.498-2.888 1.498a2.99 2.99 0 0 1-2.128-.888c-4.02-4.027-14.393-14.542-14.497-14.648l-.078-.08-.063-.091a4.403 4.403 0 0 1-.286-4.499zm26.295-32.48a4.36 4.36 0 0 1 3.116 1.311l2.334 2.358.007.004 7.884 8.148a4.405 4.405 0 0 1 1.134 4.04 4.4 4.4 0 0 1-2.754 3.166l-12.515 4.7a4.417 4.417 0 0 1-1.557.285 4.409 4.409 0 0 1-3.347-1.551 4.402 4.402 0 0 1-1.005-3.538l2.326-15.174a4.4 4.4 0 0 1 4.377-3.749zm19.679-26.814l2.845 9.151c.186.596.377 1.287.129 1.941-.149.39-.656 1.07-.92 1.393-2.708 3.321-12.116 12.121-12.116 12.121a4.351 4.351 0 0 1-3.113 1.299 4.428 4.428 0 0 1-2.84-1.035l-.046-.038-.815-.823c-.594-.6-1.01-1.588-1.185-2.25l-2.117-7.95a4.424 4.424 0 0 1 1.193-4.297l11.701-11.368a4.373 4.373 0 0 1 3.061-1.249A4.4 4.4 0 0 1 220 96.624zm-4.96-7.802l-12.77 12.407a3.14 3.14 0 0 1-2.198.896c-1.439 0-2.7-.97-3.068-2.36l-3.11-11.774a4.403 4.403 0 0 1 2.716-5.263l12.702-4.77a4.394 4.394 0 0 1 1.549-.282 4.392 4.392 0 0 1 4.211 3.104l1.108 3.561a4.397 4.397 0 0 1-1.14 4.481zm-45.464 46.22a4.434 4.434 0 0 1 .396-4.735l13.875-18.21a4.378 4.378 0 0 1 3.509-1.738c1.184 0 2.296.464 3.131 1.308l2.907 2.936a4.435 4.435 0 0 1 1.227 3.778l-4.374 28.524a4.41 4.41 0 0 1-4.243 3.744l-5.365.142-.118.002a4.399 4.399 0 0 1-3.902-2.359l-7.043-13.392zm-2.578 16.111l-.118.002a4.436 4.436 0 0 1-3.133-1.308l-20.241-20.452c-1.31-1.323-2.125-3.373-.822-4.749 3.114-3.288 6.368-6.673 9.067-9.158a2.566 2.566 0 0 1 1.77-.681c1.594 0 3.112 1.302 3.788 2.588l15.06 28.638a3.433 3.433 0 0 1-.076 3.351 3.425 3.425 0 0 1-2.882 1.705l-2.413.064zm-28.339-10.188a3.433 3.433 0 0 1 .076-3.351 3.425 3.425 0 0 1 2.882-1.705l2.413-.064.117-.002c1.17 0 2.311.477 3.134 1.308l20.241 20.453a4.388 4.388 0 0 1 .225 5.947l-.033.038-7.15 7.224-.032.028a4.407 4.407 0 0 1-2.924 1.11c-1.638 0-3.128-.899-3.89-2.347l-15.059-28.639zm-10.345 36.812l11.615-15.245a4.373 4.373 0 0 1 3.503-1.738c1.645 0 3.143.904 3.908 2.359l5.724 10.885c.82 1.56.63 3.457-.486 4.833l-.04.05-10.947 11.057a4.378 4.378 0 0 1-3.133 1.307 4.376 4.376 0 0 1-3.132-1.306l-7.435-7.508-.095-.213a4.417 4.417 0 0 1 .518-4.48zm-11.907-9.16l4.374-28.523a4.41 4.41 0 0 1 4.243-3.744l5.366-.143.117-.001a4.4 4.4 0 0 1 3.902 2.358l7.043 13.393a4.434 4.434 0 0 1-.396 4.734l-13.874 18.21a4.35 4.35 0 0 1-3.488 1.726c-.659 0-1.32-.15-1.914-.434l-.2-.095-4.688-4.733-.093-.198a4.394 4.394 0 0 1-.392-2.55zM96.231 147.7a4.402 4.402 0 0 1 2.754-3.166l12.515-4.7a4.42 4.42 0 0 1 1.557-.285 4.41 4.41 0 0 1 3.347 1.55 4.404 4.404 0 0 1 1.006 3.54l-2.327 15.173a4.383 4.383 0 0 1-4.362 3.734 4.335 4.335 0 0 1-1.9-.434L97.366 151.74a4.405 4.405 0 0 1-1.135-4.041zm.221-18.055l12.77-12.407a3.14 3.14 0 0 1 2.198-.896c1.44 0 2.701.97 3.068 2.36l3.11 11.775a4.403 4.403 0 0 1-2.715 5.263l-12.702 4.77a4.391 4.391 0 0 1-1.55.282 4.392 4.392 0 0 1-4.211-3.104l-1.107-3.562a4.397 4.397 0 0 1 1.139-4.48zm1.36-46.379a4.405 4.405 0 0 1-1.134-4.04 4.4 4.4 0 0 1 2.754-3.166l12.516-4.7a4.415 4.415 0 0 1 1.557-.285 4.41 4.41 0 0 1 3.346 1.55 4.403 4.403 0 0 1 1.006 3.54l-2.327 15.173a4.381 4.381 0 0 1-4.358 3.734 4.381 4.381 0 0 1-2.942-1.14l-.026-.023-3.014-3.045a2.25 2.25 0 0 1-.106-.088l-.035-.032-7.236-7.478zm30.948 26.038l11.615-15.245a4.372 4.372 0 0 1 3.504-1.738c1.644 0 3.142.904 3.907 2.359l5.724 10.884.022.045c.97 2.033-.118 3.824-.832 4.524-3.164 3.103-8.351 8.575-11.25 11.315-.378.357-1.101 1.128-1.56 1.371-.331.177-.737.143-1.112.143a4.39 4.39 0 0 1-2.938-1.129c-1.782-1.683-6.897-6.968-6.897-6.968l-.032-.039a4.385 4.385 0 0 1-.15-5.522zm7.668 16.913l.035.041a4.379 4.379 0 0 1 .624 4.641 4.367 4.367 0 0 1-3.895 2.588l-8.492.225-.118.002c-2 0-3.752-1.352-4.263-3.287l-3.925-14.861c-.291-1.102-.07-2.239.606-3.118a3.704 3.704 0 0 1 2.916-1.441c.823 0 1.601.28 2.251.812l.052.043 14.21 14.355zm-44.935-4.373l-2.846-9.152c-.18-.58-.394-1.24-.135-1.88.223-.55.996-1.49 1.42-1.908 3.145-3.098 11.605-11.61 11.605-11.61a4.379 4.379 0 0 1 3.132-1.305c1.185 0 2.298.464 3.133 1.307l.705.713.025.028c.473.538.798 1.136.967 1.777l2.172 8.22a4.424 4.424 0 0 1-1.193 4.297L98.777 123.7a4.374 4.374 0 0 1-3.062 1.248 4.4 4.4 0 0 1-4.222-3.104zm-14.94 27.988a4.382 4.382 0 0 1-1.699-.34l-2.14-.894a4.407 4.407 0 0 1-2.699-4.421s.855-10.89 1.145-14.52c.006-.077.616-1.884.98-2.427 1.97-2.94 6.65-7.352 9.901-10.118 3.094-2.633 5.318.345 5.89 2.187L94.09 139.1a4.42 4.42 0 0 1-2.663 5.446l-13.325 5.004a4.393 4.393 0 0 1-1.55.281zm-19.253-7.67a4.431 4.431 0 0 1-2.587-3.028l-5.492-22.506c-.272-1.117-.042-2.216.648-3.096a3.728 3.728 0 0 1 2.91-1.422c.802 0 1.565.267 2.206.77l.063.05 12.46 12.581.032.04a4.386 4.386 0 0 1 1.04 3.183l-.904 11.487c-.18 2.283-2.111 4.071-4.397 4.071a4.385 4.385 0 0 1-1.699-.343l-4.28-1.787zm1.208 7.823a4.388 4.388 0 0 1 3.944-2.438c.585 0 1.155.115 1.697.341l8.946 3.735a4.406 4.406 0 0 1 2.632 3.237l1.7 8.795a3.762 3.762 0 0 1-.787 3.119 3.773 3.773 0 0 1-2.917 1.387 3.768 3.768 0 0 1-1.497-.31l-14.35-6.17a4.43 4.43 0 0 1-2.402-2.542 4.437 4.437 0 0 1 .2-3.494l2.834-5.66zm127.256 63.462l-2.326 15.174a4.374 4.374 0 0 1-4.351 3.728c-1.034 0-2.04-.37-2.835-1.043l-.046-.039-10.486-10.718a4.405 4.405 0 0 1-1.135-4.04 4.4 4.4 0 0 1 2.754-3.166l12.516-4.7a4.415 4.415 0 0 1 1.557-.285 4.41 4.41 0 0 1 3.347 1.55 4.404 4.404 0 0 1 1.005 3.54zm-2.527-8.899l-12.702 4.77a4.387 4.387 0 0 1-1.549.282 4.392 4.392 0 0 1-4.211-3.104l-1.108-3.562a4.398 4.398 0 0 1 1.14-4.48l12.77-12.407a3.14 3.14 0 0 1 2.198-.896c1.44 0 2.7.97 3.068 2.36l3.11 11.774a4.403 4.403 0 0 1-2.716 5.263zm120.614-76.271a4.376 4.376 0 0 1-1.249 3.186 4.436 4.436 0 0 1-3.156 1.338c-.474 0-.945-.077-1.401-.23l-13.83-4.621c-2.016-.674-3.255-2.705-2.946-4.831l.06-.413.291-.298c.116-.119 11.64-11.903 15.563-15.722 1.641-1.598 3.018-2.408 4.092-2.408.576 0 1.097.224 1.47.63.492.539.69 1.34.603 2.448l.503 20.92zM280.829 63.75a3.725 3.725 0 0 1 3.049-1.61c.401 0 .803.066 1.193.197l16.525 5.522a4.427 4.427 0 0 1 3.013 4.082l.148 6.152a4.439 4.439 0 0 1-3.07 4.313l-9.999 3.188c-.435.139-.885.21-1.339.21-1.838 0-3.5-1.16-4.137-2.887l-5.815-15.752a3.676 3.676 0 0 1 .432-3.415zm1.191-45.496a4.437 4.437 0 0 1 3.156-1.338c.474 0 .946.077 1.402.23l13.83 4.62a4.339 4.339 0 0 1 2.776 2.788 4.442 4.442 0 0 1-.586 3.928l-.061.087-16.255 16.42-.126.08a3.165 3.165 0 0 1-1.678.48 3.18 3.18 0 0 1-3.202-3.12l-.504-20.989a4.374 4.374 0 0 1 1.248-3.186zm22.296 41.49a4.376 4.376 0 0 1-1.248 3.186 4.436 4.436 0 0 1-3.156 1.338c-.474 0-.946-.078-1.402-.23l-13.83-4.621a4.34 4.34 0 0 1-2.776-2.787 4.444 4.444 0 0 1 .585-3.929l.062-.086 16.255-16.42.126-.08a3.162 3.162 0 0 1 1.677-.48 3.18 3.18 0 0 1 3.203 3.12l.504 20.989zM332.104 12.7a4.388 4.388 0 0 1 3.945-2.438c.584 0 1.155.115 1.697.341l2.254.942V5.697a4.403 4.403 0 0 1-3.124 1.311 4.392 4.392 0 0 1-1.7-.343l-4.28-1.787c-1.116-.467-2.867-3.703-3.148-4.876h-7.059s-.81.143-1.278.169c-.383.02-1.257-.168-1.257-.168l-6.876.001 15.862 6.171a4.427 4.427 0 0 1 2.437 2.538 4.434 4.434 0 0 1-.192 3.516l-7.002 13.985a4.379 4.379 0 0 1-3.937 2.429 4.41 4.41 0 0 1-2.14-.554l-.16-.088-5.39-5.446-.108-.197a3.897 3.897 0 0 1-.263-.548l-6.366-17.247c-.264-.714-.473-1.496-.231-2.181.478-1.358 1.662-2.378 1.662-2.378h-6.1l5.34 14.014a3.675 3.675 0 0 1-.43 3.415 3.725 3.725 0 0 1-3.05 1.61c-.401 0-.803-.066-1.193-.196l-16.525-5.522a4.426 4.426 0 0 1-3.013-4.082l-.148-6.153c-.005-.237.016-.672.098-.893.586-1.579 1.544-2.193 1.544-2.193h-18.94l-5.85 5.457a4.429 4.429 0 0 1-1.795 1.1l-10.687 3.407c-.437.14-.89.21-1.343.21-2.372 0-4.348-1.934-4.405-4.311l-.152-5.863h-4.553c.218.18 1.874 1.563 1.994 3.128.117 1.534.148 6.153.148 6.153a4.44 4.44 0 0 1-3.071 4.312l-9.999 3.189a4.4 4.4 0 0 1-1.339.209c-1.837 0-3.5-1.16-4.137-2.886L212.471.004h-2.819l3.05 7.809a4.349 4.349 0 0 1-.507 4.04 4.421 4.421 0 0 1-3.617 1.913 4.422 4.422 0 0 1-1.712-.348L189.58 6.2c-1.594-.666-2.634-2.178-2.692-3.818-.036-1.043.75-2.382.75-2.382l-2.961.004s-.625.931-2.493 1.105c-4.298.4-8.524-1.105-8.524-1.105h-6.82s2.2.913 4.608 2.384c.932.57 1.037 1.954.946 3.101l-.526 15.756a4.386 4.386 0 0 1-1.1 2.57l-.024.027c-2.014 2.156-6.208 6.308-8.301 8.386l-.034.033a4.385 4.385 0 0 1-3.008 1.195 4.386 4.386 0 0 1-4.21-3.096l-6.158-19.802a4.42 4.42 0 0 1 2.663-5.446s7.723-2.71 10.25-3.811c3.057-1.331 4.858-1.297 4.858-1.297h-7.823s-2.89.872-3.882.998c-.27.035-.817.031-1.087 0-1.041-.117-2.007-.492-2.546-.748-.294-.14-.45-.25-.45-.25h-4.262c.41 1.563-1.352 4.646-2.615 5.12l-12.517 4.7a4.418 4.418 0 0 1-1.556.286 4.41 4.41 0 0 1-3.347-1.551 4.404 4.404 0 0 1-1.005-3.539l.838-5.016h-2.674l-1.535 9.56a4.41 4.41 0 0 1-4.243 3.744l-5.365.143a4.399 4.399 0 0 1-4.02-2.357l-6.07-11.09h-2.987l4.807 8.689a3.432 3.432 0 0 1-.075 3.35 3.425 3.425 0 0 1-2.883 1.706l-2.413.064a4.383 4.383 0 0 1-3.239-1.297L83.025.005h-3.758l20.606 20.333a4.438 4.438 0 0 1 .85 4.934l-.095.205-8.567 8.654-.199.096a4.458 4.458 0 0 1-1.92.438 4.377 4.377 0 0 1-3.887-2.343L70.995 3.683c-.517-.953-.03-2.87.715-3.679h-6.646s.417.292 1.116 1.469c1.945 3.275 7.609 13.201 7.609 13.201a4.434 4.434 0 0 1-.396 4.734l-13.875 18.21a4.354 4.354 0 0 1-3.49 1.73c-1.068 0-2.1-.388-2.905-1.091l-.035-.03-3.273-3.306-.028-.032a4.407 4.407 0 0 1-1.044-3.554L53.117 2.81c.41-1.606 1.856-2.553 2.352-2.807H44.305l-9.787 3.221a4.38 4.38 0 0 1-1.544.282c-1.094 0-2.14-.4-2.94-1.125-.989-.897-1.542-2.378-1.542-2.378h-2.77s.679 1.765.84 2.378c.535 2.019-.794 4.129-2.797 4.882l-13.326 5.003a4.394 4.394 0 0 1-3.247-.059l-2.597-1.181c-1.765-.737-2.28-2.911-2.13-4.82L2.93.005H.294s.094 4.329.041 4.724c-.104.786-.334.969-.334.969v5.849s4.178 2.13 5.431 2.794c1.309.693 2.35 1.78 2.632 3.236l1.701 7.527a3.763 3.763 0 0 1-.787 3.119c-.727.882-1.658 2.039-2.786 2.039a3.765 3.765 0 0 1-1.496-.312L0 28.062l.002 2.88s7.106 2.837 9.413 3.957c1.315.639 2.443 3.03 2.72 4.467l.785 3.32c.18.928.046 1.886-.387 2.77l-.092.19s-4.333 5.138-5.784 6.581c-.746.743-2.228 2.186-3.787 1.84C1.534 53.77.452 52.519 0 52.096v12.378s.049-1.302 1.014-2.696c.443-.639 2.04-2.12 2.04-2.12s12.152-13.116 16.845-17.762c.54-.534 2.302-1.356 2.72-1.356.975 0 1.903.42 2.546 1.151.63.718.908 1.648.783 2.62L24.226 57.68a4.43 4.43 0 0 1-3.036 3.642l-18.314 6.6c-.312.1-.63.15-.946.15-.307 0-1.631.094-1.928-1.876v5.138s.77-.228 1.037-.231c2.038-.027 3.506 2.095 3.557 4.213L4.87 85.79c.038 1.61-.824 3.881-2.216 4.69L.001 92.145v3.061s.68-.331 1.037-.352c2.28-.134 4.068 1.97 4.124 4.284l.482 20.563c.01.386.034 1.193-.109 1.551-.207.52-.962 1.158-1.443 1.445-.355.212-.8.295-1.222.203-1.337-.292-2.418-1.52-2.87-1.935v12.151s.048-1.277 1.014-2.646c.443-.627 1.512-1.579 2.04-2.081 4.764-4.545 12.926-14.013 18.083-18.866.222-.209.812-.442 1.11-.502.949-.191 1.88.46 2.503 1.189a3.27 3.27 0 0 1 .751 2.576l-1.723 13.369a4.43 4.43 0 0 1-3.035 3.642L3.584 136.28l-.708.221a3.16 3.16 0 0 1-.946.147c-.308 0-1.632.093-1.929-1.84v4.916s.77-.221 1.037-.224c1.457-.02 3.094 1.107 3.11 2.738.035 3.199.275 12.026.275 12.026.03 1.25-.403 3.39-1.346 4.217-.12.105-.26.185-.4.267L0 160.413v3.09s.702-.333 1.06-.355c1.02-.06 1.94.334 2.652.994.618.736.999 1.68 1.024 2.724 0 0 .382 15.43.506 20.574.013.533.02 1.142-.35 1.56-.542.607-2.047 1.31-2.98 1.31-.289 0-1.118.1-1.913-.55v3.951c.016.036.442.166 1.523 3.275 1.523 4.38 4.878 15.865 4.878 15.865a4.348 4.348 0 0 1-.507 4.04 4.42 4.42 0 0 1-3.617 1.914c-.582 0-1.11-.1-1.696-.321a96.28 96.28 0 0 1-.58-.227v2.867l7.654 3.16c2.9 1.361 4.002 3.724 3.749 5.692l-3.148 22.618a4.445 4.445 0 0 1-1.242 2.543l-1.972 2.76c-.83.838-1.937 1.327-3.117 1.3-.858-.02-1.497-.128-1.924-.474v3.8s.303.308.292 1.333c-.03 3.003 0 11.144 0 11.144H2.93l.663-7.654c.082-1.04.53-2.02 1.264-2.762l8.068-8.916a4.365 4.365 0 0 1 3.122-1.31 4.4 4.4 0 0 1 4.222 3.105L25.722 275h2.77l-.842-2.71a4.397 4.397 0 0 1 1.14-4.48l12.77-12.407a3.139 3.139 0 0 1 2.198-.896c1.439 0 2.7.97 3.068 2.36l3.11 11.774a4.402 4.402 0 0 1-2.716 5.263L44.302 275H55.47a4.393 4.393 0 0 1 1.89-.485l5.366-.143.11-.001c.775 0 1.536.216 2.225.629h6.65a3.38 3.38 0 0 1 2.243-.926l2.413-.064.116-.001c1.025 0 1.997.348 2.784.991h3.758l-7.436-7.514c-1.68-1.713-1.673-4.494.014-6.199l6.767-6.836a4.372 4.372 0 0 1 3.128-1.308c1.645 0 3.143.904 3.908 2.36L99.66 275h2.987l-.973-1.85a4.433 4.433 0 0 1 .396-4.735l13.875-18.21a4.35 4.35 0 0 1 3.487-1.728c.98 0 1.946.332 2.72.936l.064.05 3.555 3.59.046.06a4.43 4.43 0 0 1 .902 3.376L123.88 275h2.674l1.488-9.705a4.374 4.374 0 0 1 4.35-3.728c1.034 0 2.04.37 2.835 1.043l.043.036 2.243 2.265c.028.028.103.084.158.125l.077.057.186.186 7.825 8.088c.452.466.79 1.025.997 1.633h4.263l-7.258-7.5c-1.658-1.714-1.642-4.487.036-6.182l10.173-10.267a4.361 4.361 0 0 1 3.117-1.31 4.429 4.429 0 0 1 4.346 3.58l3.034 15.69a4.405 4.405 0 0 1-2.782 4.973L158.98 275h14.68l-3.63-1.516a4.406 4.406 0 0 1-2.633-3.237l-1.7-8.795a3.762 3.762 0 0 1 .787-3.119 3.775 3.775 0 0 1 2.918-1.387c.512 0 1.015.104 1.496.311l14.35 6.17a4.43 4.43 0 0 1 2.402 2.542 4.437 4.437 0 0 1-.2 3.493L184.678 275h2.956l6.703-13.39a4.48 4.48 0 0 1 3.97-2.463c1.022 0 1.998.37 2.748 1.04 1.148 1.027 3.523 3.36 4.629 4.68.27.323.49.709.651 1.147l3.318 8.986h2.818l-.44-1.195a3.676 3.676 0 0 1 .43-3.415 3.725 3.725 0 0 1 3.05-1.61c.401 0 .802.066 1.192.196l16.526 5.522a4.28 4.28 0 0 1 1.019.502h4.554l-.1-4.157a4.415 4.415 0 0 1 2.193-3.924l19.335-11.249a4.41 4.41 0 0 1 5.349.71l4.866 4.915a4.432 4.432 0 0 1 0 6.216L263.032 275h18.94a4.387 4.387 0 0 1 1.43-.774l9.998-3.188c.435-.14.885-.21 1.34-.21 1.837 0 3.5 1.16 4.136 2.887l.475 1.285h6.099a4.408 4.408 0 0 1 2.697-.942c.58 0 1.155.117 1.708.347l1.423.595h6.929a4.575 4.575 0 0 1-.452-.162l-14.99-6.26a4.427 4.427 0 0 1-2.677-4.64l3.148-24.43a4.444 4.444 0 0 1 1.241-2.544l1.973-1.992a4.377 4.377 0 0 1 3.133-1.308c1.185 0 2.298.464 3.132 1.307l2.515 2.54c.564.569.963 1.282 1.152 2.06l7.357 30.144a4.379 4.379 0 0 1-.807 3.765 4.484 4.484 0 0 1-2.227 1.52h7.044l-4.932-20.208c-.272-1.117-.041-2.218.65-3.1a3.733 3.733 0 0 1 2.914-1.424c.957 0 1.867.388 2.563 1.09L340 262.523v-3.799l-2.24-2.261a4.42 4.42 0 0 1-1.153-2.061l-7.355-30.144a4.38 4.38 0 0 1 .806-3.765 4.451 4.451 0 0 1 3.47-1.704c.582 0 1.156.116 1.707.346l4.765 1.99v-2.866l-14.15-5.91a4.427 4.427 0 0 1-2.437-2.538 4.433 4.433 0 0 1 .192-3.515l7.002-13.985a4.38 4.38 0 0 1 3.937-2.429c.749 0 1.489.192 2.14.554l.16.089 3.156 3.188v-3.952l-13.258-13.388-.086-.157a4.386 4.386 0 0 1 1.643-5.933l11.31-6.58a3.81 3.81 0 0 1 .391-.2v-3.089l-15.607 9.08a4.382 4.382 0 0 1-2.2.594 4.441 4.441 0 0 1-2.166-.566l-.157-.087-6.317-6.38-.086-.154c-.949-1.709-.657-3.867.71-5.247l13.263-13.399a4.43 4.43 0 0 1 1.794-1.099l10.688-3.408.078-.024v-18.758l-12.166-12.29a4.389 4.389 0 0 1-1.24-3.687 4.387 4.387 0 0 1 2.157-3.238L340 95.205v-3.06l-15.154 8.817a4.413 4.413 0 0 1-5.35-.71l-4.866-4.915a4.432 4.432 0 0 1 0-6.216l13.263-13.399a4.43 4.43 0 0 1 1.794-1.099L340 71.335v-12.74a4.376 4.376 0 0 1-1.188 2.276L325.55 74.27a4.43 4.43 0 0 1-1.794 1.1l-10.687 3.407c-.438.14-.89.211-1.344.211-2.371 0-4.347-1.934-4.405-4.312l-.25-10.471a4.414 4.414 0 0 1 2.192-3.924l19.335-11.25a4.382 4.382 0 0 1 2.2-.593c.756 0 1.505.196 2.166.566l.157.088 6.318 6.38.085.153c.233.42.391.867.477 1.323v-4.85l-16.832-17.004-.088-.162a4.42 4.42 0 0 1-.066-4.073l1.11-2.218a4.388 4.388 0 0 1 3.945-2.438c.6 0 1.186.12 1.74.36L340 30.941v-2.88l-8.527-3.665a4.43 4.43 0 0 1-2.402-2.542 4.436 4.436 0 0 1 .2-3.494l2.833-5.66z"/>
</svg>
